<svg width="1088" height="96" viewBox="0 0 1088 96" fill="none" xmlns="http://www.w3.org/2000/svg">
<path d="M29.7756 95.9847C25.1169 95.9847 20.9487 95.2184 17.2708 93.686C13.6542 92.1535 10.5587 89.9162 7.98415 86.9739C5.40964 83.9703 3.4481 80.3537 2.09955 76.1241C0.812292 71.8333 0.168664 66.9908 0.168664 61.5965C0.168664 57.367 0.628399 52.9535 1.54787 48.3562C2.52863 43.7588 3.99978 39.1922 5.96132 34.6561C7.92285 30.0588 10.3441 25.7679 13.2251 21.7835C16.1061 17.7379 19.4162 14.152 23.1554 11.0258C26.9558 7.83828 31.2161 5.35571 35.936 3.57807C40.6559 1.80043 45.805 0.911605 51.3831 0.911605C55.1835 0.911605 58.5856 1.34069 61.5892 2.19887C64.6541 2.99574 67.3818 4.2217 69.7724 5.87674C72.1631 7.53179 74.2165 9.61591 75.9329 12.1291C76.4233 12.8034 76.5152 13.4164 76.2087 13.9681C75.9635 14.4584 75.4118 15.0408 74.5537 15.7151C73.7568 16.328 73.0519 16.6958 72.4389 16.8184C71.8259 16.8797 71.121 16.5732 70.3241 15.8989C68.7304 14.3052 67.014 12.9873 65.1751 11.9452C63.3362 10.8419 61.1907 10.045 58.7388 9.55461C56.3482 9.00293 53.4978 8.72709 50.1878 8.72709C46.0808 8.72709 42.1884 9.46267 38.5105 10.9338C34.8939 12.405 31.5532 14.4584 28.4883 17.0943C25.4234 19.6688 22.665 22.6724 20.2131 26.105C17.7612 29.4764 15.677 33.093 13.9607 36.9548C12.3056 40.8165 11.0184 44.7703 10.0989 48.8159C9.17946 52.8003 8.71972 56.6927 8.71972 60.4932C8.71972 65.0905 9.17946 69.1362 10.0989 72.6302C11.0184 76.0628 12.3669 78.9438 14.1446 81.2732C15.9835 83.5412 18.2822 85.2575 21.0406 86.4222C23.8603 87.5868 27.1397 88.1692 30.8789 88.1692C33.5147 88.1692 36.0279 87.7401 38.4186 86.8819C40.8092 85.9625 43.1385 84.7365 45.4065 83.204C47.6745 81.6103 49.9119 79.7407 52.1186 77.5953C54.3254 75.3886 56.5321 72.9673 58.7388 70.3315C59.4131 69.5959 60.0874 69.3814 60.7616 69.6879C61.4972 69.9331 62.2328 70.3928 62.9684 71.0671C63.7652 71.8639 64.1943 72.5689 64.2556 73.1818C64.3782 73.7335 64.133 74.4691 63.52 75.3886C59.597 80.5376 55.6433 84.6139 51.6589 87.6175C47.7358 90.6211 43.9047 92.7665 40.1655 94.0538C36.4877 95.341 33.0243 95.9847 29.7756 95.9847ZM88.9275 95.9847C85.0658 95.9847 81.7863 95.2184 79.0892 93.686C76.3921 92.0922 74.3386 89.8855 72.9288 87.0658C71.5802 84.1848 70.906 80.936 70.906 77.3194C70.906 74.0094 71.4883 70.5767 72.653 67.0214C73.8176 63.4048 75.534 60.0641 77.802 56.9992C80.07 53.873 82.8591 51.3598 86.1691 49.4596C89.5405 47.498 93.4636 46.5172 97.9383 46.5172C101.739 46.5172 104.957 47.2835 107.593 48.8159C110.29 50.2871 112.313 52.4019 113.661 55.1603C115.071 57.8574 115.776 60.9836 115.776 64.5388C115.776 67.0521 115.408 69.7492 114.673 72.6302C113.998 75.5112 112.956 78.3309 111.546 81.0893C110.137 83.8477 108.359 86.3609 106.214 88.6289C104.068 90.8356 101.555 92.6133 98.6739 93.9618C95.7929 95.3104 92.5441 95.9847 88.9275 95.9847ZM89.7551 88.6289C92.6361 88.6289 95.1493 87.8933 97.2947 86.4222C99.5014 84.8897 101.34 82.9282 102.812 80.5376C104.344 78.147 105.509 75.6338 106.306 72.9979C107.102 70.3008 107.501 67.757 107.501 65.3664C107.501 62.9144 107.072 60.8303 106.214 59.114C105.355 57.3976 104.16 56.1104 102.628 55.2522C101.156 54.3327 99.3788 53.873 97.2947 53.873C94.3524 53.873 91.7473 54.6086 89.4792 56.0797C87.2112 57.5509 85.311 59.4818 83.7785 61.8724C82.3074 64.2017 81.1734 66.6843 80.3765 69.3201C79.5796 71.9559 79.1812 74.4384 79.1812 76.7678C79.1812 79.2197 79.6103 81.3651 80.4684 83.204C81.3266 84.9817 82.5526 86.3302 84.1463 87.2497C85.7401 88.1692 87.6096 88.6289 89.7551 88.6289ZM121.648 58.8381C119.013 58.8381 116.407 58.5316 113.833 57.9187C111.197 57.2444 108.285 55.8958 105.098 53.873C104.485 53.5052 104.148 52.9842 104.087 52.3099C104.025 51.5743 104.179 50.8694 104.546 50.1951C104.853 49.5208 105.313 49.0305 105.926 48.724C106.477 48.4175 107.06 48.4481 107.672 48.8159C110.002 50.2258 112.362 51.2065 114.752 51.7582C117.143 52.2486 119.779 52.4938 122.66 52.4938C124.437 52.4938 126.307 52.3099 128.269 51.9421C130.291 51.5743 132.253 51.0226 134.153 50.2871C136.053 49.5515 137.678 48.6627 139.026 47.6206C139.639 47.0689 140.252 46.9157 140.865 47.1609C141.478 47.4061 141.969 47.8658 142.336 48.5401C142.704 49.2144 142.857 49.9499 142.796 50.7468C142.735 51.4824 142.367 52.0954 141.693 52.5857C139.609 54.1795 137.371 55.4361 134.981 56.3556C132.59 57.275 130.23 57.9187 127.901 58.2864C125.633 58.6542 123.549 58.8381 121.648 58.8381ZM196.403 95.8008C193.829 95.8008 191.898 95.3104 190.611 94.3296C189.385 93.4101 188.557 92.2148 188.128 90.7437C187.76 89.2725 187.668 87.6788 187.852 85.9625C188.097 84.1848 188.465 82.4991 188.956 80.9054L194.381 62.4241C194.871 60.8303 195.177 59.3898 195.3 58.1026C195.423 56.8153 195.177 55.8039 194.564 55.0683C194.013 54.2714 192.879 53.873 191.162 53.873C189.14 53.873 186.933 54.7925 184.542 56.6314C182.213 58.4703 179.822 61.0755 177.37 64.4469C174.918 67.8183 172.528 71.772 170.199 76.308C167.93 80.7828 165.785 85.6866 163.762 91.0195L160.176 91.1115C162.322 84.0009 164.682 77.6872 167.256 72.1704C169.892 66.6536 172.681 61.995 175.623 58.1945C178.566 54.3327 181.569 51.4211 184.634 49.4596C187.76 47.498 190.856 46.5172 193.921 46.5172C197.047 46.5172 199.346 47.2835 200.817 48.8159C202.349 50.2871 203.177 52.3712 203.299 55.0683C203.422 57.7041 202.932 60.769 201.828 64.263L197.047 80.7215C196.128 83.8477 195.729 85.9931 195.852 87.1578C195.974 88.3224 196.741 88.9048 198.15 88.9048C199.009 88.9048 199.622 89.2725 199.989 90.0081C200.418 90.6824 200.572 91.4793 200.449 92.3987C200.388 93.2569 200.02 94.0231 199.346 94.6974C198.671 95.433 197.691 95.8008 196.403 95.8008ZM128.547 95.6169C127.505 95.6169 126.554 95.4023 125.696 94.9732C124.899 94.5442 124.685 93.7779 125.053 92.6746L137.373 49.7354C137.741 48.5707 138.201 47.8045 138.753 47.4367C139.366 47.0689 140.254 46.885 141.419 46.885C143.258 46.885 144.453 47.1609 145.005 47.7126C145.557 48.2642 145.649 49.1531 145.281 50.379L141.327 64.263C143.044 61.382 144.791 58.8381 146.568 56.6314C148.407 54.3634 150.246 52.4938 152.085 51.0226C153.985 49.5515 155.885 48.4481 157.786 47.7126C159.747 46.9157 161.678 46.5172 163.578 46.5172C166.705 46.5172 169.003 47.2528 170.474 48.724C172.007 50.1951 172.804 52.2793 172.865 54.9764C172.988 57.6735 172.528 60.769 171.486 64.263L163.119 93.2263C162.873 94.0231 162.444 94.6055 161.831 94.9732C161.218 95.4023 160.207 95.6169 158.797 95.6169C157.755 95.6169 156.805 95.4023 155.947 94.9732C155.15 94.5442 154.935 93.7779 155.303 92.6746L164.038 62.4241C164.528 60.8303 164.835 59.3898 164.958 58.1026C165.08 56.8153 164.835 55.8039 164.222 55.0683C163.67 54.2714 162.536 53.873 160.82 53.873C158.858 53.873 156.713 54.7618 154.384 56.5395C152.116 58.2558 149.786 60.7384 147.396 63.9872C145.005 67.1746 142.645 70.9445 140.316 75.2966C138.048 79.5875 135.902 84.2768 133.879 89.3645L132.868 93.2263C132.684 94.0231 132.255 94.6055 131.581 94.9732C130.968 95.4023 129.956 95.6169 128.547 95.6169ZM196.427 95.8008C195.569 95.8008 194.956 95.433 194.588 94.6974C194.159 94.0231 194.006 93.2569 194.128 92.3987C194.19 91.4793 194.557 90.6824 195.232 90.0081C195.906 89.2725 196.887 88.9048 198.174 88.9048C199.584 88.9048 201.208 88.1998 203.047 86.79C204.825 85.3188 206.94 83.0202 209.392 79.894C211.782 76.7678 214.602 72.6608 217.851 67.5731C221.161 62.4241 224.992 56.1717 229.344 48.8159C229.834 47.9578 230.509 47.59 231.367 47.7126C232.286 47.7739 233.022 48.1416 233.574 48.8159C234.187 49.4289 234.248 50.1338 233.757 50.9307C228.915 59.6963 224.716 66.9908 221.161 72.8141C217.605 78.5761 214.449 83.1427 211.69 86.5141C208.932 89.8855 206.357 92.2761 203.967 93.686C201.515 95.0958 199.002 95.8008 196.427 95.8008ZM287.363 95.8008C284.788 95.8008 282.857 95.3104 281.57 94.3296C280.344 93.4101 279.516 92.2148 279.087 90.7437C278.72 89.2725 278.628 87.6788 278.811 85.9625C279.057 84.1848 279.424 82.4991 279.915 80.9054L285.34 62.4241C285.83 60.8303 286.137 59.3898 286.259 58.1026C286.382 56.8153 286.137 55.8039 285.524 55.0683C284.972 54.2714 283.838 53.873 282.122 53.873C280.099 53.873 277.892 54.7925 275.501 56.6314C273.172 58.4703 270.781 61.0755 268.33 64.4469C265.878 67.8183 263.487 71.772 261.158 76.308C258.89 80.7828 256.744 85.6866 254.721 91.0195L251.135 91.1115C253.281 84.0009 255.641 77.6872 258.215 72.1704C260.851 66.6536 263.64 61.995 266.583 58.1945C269.525 54.3327 272.528 51.4211 275.593 49.4596C278.72 47.498 281.815 46.5172 284.88 46.5172C288.006 46.5172 290.305 47.2835 291.776 48.8159C293.308 50.2871 294.136 52.3712 294.259 55.0683C294.381 57.7041 293.891 60.769 292.787 64.263L288.006 80.7215C287.087 83.8477 286.688 85.9931 286.811 87.1578C286.933 88.3224 287.7 88.9048 289.11 88.9048C289.968 88.9048 290.581 89.2725 290.948 90.0081C291.378 90.6824 291.531 91.4793 291.408 92.3987C291.347 93.2569 290.979 94.0231 290.305 94.6974C289.631 95.433 288.65 95.8008 287.363 95.8008ZM219.506 95.6169C218.464 95.6169 217.514 95.4023 216.655 94.9732C215.859 94.5442 215.644 93.7779 216.012 92.6746L228.333 49.7354C228.7 48.5707 229.16 47.8045 229.712 47.4367C230.325 47.0689 231.214 46.885 232.378 46.885C234.217 46.885 235.413 47.1609 235.964 47.7126C236.516 48.2642 236.608 49.1531 236.24 50.379L232.286 64.263C234.003 61.382 235.75 58.8381 237.527 56.6314C239.366 54.3634 241.205 52.4938 243.044 51.0226C244.944 49.5515 246.845 48.4481 248.745 47.7126C250.706 46.9157 252.637 46.5172 254.537 46.5172C257.664 46.5172 259.962 47.2528 261.433 48.724C262.966 50.1951 263.763 52.2793 263.824 54.9764C263.947 57.6735 263.487 60.769 262.445 64.263L254.078 93.2263C253.833 94.0231 253.403 94.6055 252.79 94.9732C252.178 95.4023 251.166 95.6169 249.756 95.6169C248.714 95.6169 247.764 95.4023 246.906 94.9732C246.109 94.5442 245.894 93.7779 246.262 92.6746L254.997 62.4241C255.488 60.8303 255.794 59.3898 255.917 58.1026C256.039 56.8153 255.794 55.8039 255.181 55.0683C254.629 54.2714 253.495 53.873 251.779 53.873C249.818 53.873 247.672 54.7618 245.343 56.5395C243.075 58.2558 240.745 60.7384 238.355 63.9872C235.964 67.1746 233.604 70.9445 231.275 75.2966C229.007 79.5875 226.861 84.2768 224.839 89.3645L223.827 93.2263C223.643 94.0231 223.214 94.6055 222.54 94.9732C221.927 95.4023 220.916 95.6169 219.506 95.6169ZM287.386 95.8008C286.528 95.8008 285.915 95.433 285.547 94.6974C285.118 94.0231 284.965 93.2569 285.088 92.3987C285.149 91.4793 285.517 90.6824 286.191 90.0081C286.865 89.2725 287.846 88.9048 289.133 88.9048C290.543 88.9048 292.167 88.1998 294.006 86.79C295.784 85.3188 297.899 83.0202 300.351 79.894C302.741 76.7678 305.561 72.6608 308.81 67.5731C312.12 62.4241 315.951 56.1717 320.303 48.8159C320.794 47.9578 321.468 47.59 322.326 47.7126C323.245 47.7739 323.981 48.1416 324.533 48.8159C325.146 49.4289 325.207 50.1338 324.717 50.9307C319.874 59.6963 315.675 66.9908 312.12 72.8141C308.565 78.5761 305.408 83.1427 302.649 86.5141C299.891 89.8855 297.316 92.2761 294.926 93.686C292.474 95.0958 289.961 95.8008 287.386 95.8008ZM349.175 95.8008C346.6 95.8008 344.669 95.3104 343.382 94.3296C342.095 93.4101 341.267 92.2148 340.899 90.7437C340.532 89.2725 340.44 87.6788 340.623 85.9625C340.869 84.1848 341.206 82.4991 341.635 80.9054L347.152 62.4241C347.642 60.8303 347.918 59.3898 347.979 58.1026C348.102 56.8153 347.857 55.8039 347.244 55.0683C346.631 54.2714 345.497 53.873 343.842 53.873C341.819 53.873 339.581 54.7618 337.129 56.5395C334.739 58.2558 332.287 60.7077 329.774 63.8952C327.322 67.0214 324.87 70.7606 322.418 75.1127C320.027 79.4036 317.821 84.1848 315.798 89.4564L314.786 93.2263C314.602 94.0231 314.173 94.6055 313.499 94.9732C312.886 95.4023 311.875 95.6169 310.465 95.6169C309.423 95.6169 308.473 95.4023 307.615 94.9732C306.818 94.5442 306.603 93.7779 306.971 92.6746L319.292 49.7354C319.66 48.5707 320.119 47.8045 320.671 47.4367C321.284 47.0689 322.173 46.885 323.337 46.885C325.176 46.885 326.372 47.1609 326.923 47.7126C327.475 48.2642 327.567 49.1531 327.199 50.379L323.062 64.7227C324.839 61.7191 326.678 59.114 328.578 56.9072C330.54 54.6392 332.501 52.739 334.463 51.2065C336.486 49.6128 338.509 48.4481 340.532 47.7126C342.554 46.9157 344.577 46.5172 346.6 46.5172C349.42 46.5172 351.596 47.1915 353.128 48.5401C354.722 49.8273 355.672 51.7889 355.979 54.4247C356.285 56.9992 355.825 60.2786 354.599 64.263L349.818 80.7215C348.837 83.8477 348.408 85.9931 348.531 87.1578C348.653 88.3224 349.42 88.9048 350.83 88.9048C351.688 88.9048 352.331 89.2725 352.76 90.0081C353.19 90.6824 353.343 91.4793 353.22 92.3987C353.159 93.2569 352.791 94.0231 352.117 94.6974C351.443 95.433 350.462 95.8008 349.175 95.8008ZM349.073 95.8008C348.215 95.8008 347.602 95.433 347.234 94.6974C346.805 94.0231 346.652 93.2569 346.775 92.3987C346.836 91.4793 347.204 90.6824 347.878 90.0081C348.552 89.2725 349.533 88.9048 350.82 88.9048C352.23 88.9048 353.854 88.1998 355.693 86.79C357.471 85.3188 359.586 83.0202 362.038 79.894C364.428 76.7678 367.248 72.6608 370.497 67.5731C373.807 62.4241 377.638 56.1717 381.99 48.8159C382.481 47.9578 383.155 47.59 384.013 47.7126C384.932 47.7739 385.668 48.1416 386.22 48.8159C386.833 49.4289 386.894 50.1338 386.404 50.9307C381.561 59.6963 377.362 66.9908 373.807 72.8141C370.252 78.5761 367.095 83.1427 364.336 86.5141C361.578 89.8855 359.003 92.2761 356.613 93.686C354.161 95.0958 351.648 95.8008 349.073 95.8008ZM380.703 95.6169C377.945 95.6169 375.768 94.9732 374.175 93.686C372.581 92.3374 371.661 90.3453 371.416 87.7094C371.171 85.0123 371.631 81.7022 372.795 77.7792L380.979 49.7354C381.347 48.5707 381.806 47.8045 382.358 47.4367C382.971 47.0689 383.86 46.885 385.024 46.885C386.863 46.885 388.059 47.1609 388.61 47.7126C389.162 48.2642 389.254 49.1531 388.886 50.379L380.151 79.6181C379.661 81.1506 379.354 82.5911 379.232 83.9396C379.17 85.2882 379.446 86.3609 380.059 87.1578C380.672 87.8933 381.806 88.2611 383.461 88.2611C385.607 88.2611 387.905 87.3723 390.357 85.5947C392.809 83.7557 395.292 81.2119 397.805 77.9631C400.318 74.7143 402.77 70.8832 405.161 66.4697C407.613 61.995 409.85 57.0911 411.873 51.7582L412.241 49.7354C412.608 48.5707 413.099 47.8045 413.712 47.4367C414.325 47.0689 415.214 46.885 416.378 46.885C418.217 46.885 419.413 47.1609 419.964 47.7126C420.516 48.2642 420.577 49.1531 420.148 50.379L411.321 80.7215C410.402 83.8477 410.003 85.9931 410.126 87.1578C410.249 88.3224 410.984 88.9048 412.333 88.9048C413.191 88.9048 413.834 89.2725 414.264 90.0081C414.693 90.6824 414.846 91.4793 414.723 92.3987C414.662 93.2569 414.294 94.0231 413.62 94.6974C412.946 95.433 411.965 95.8008 410.678 95.8008C408.164 95.8008 406.264 95.3104 404.977 94.3296C403.69 93.4101 402.862 92.2148 402.494 90.7437C402.127 89.2725 402.035 87.6788 402.218 85.9625C402.402 84.1848 402.74 82.4991 403.23 80.9054L404.057 77.6872C402.341 80.6295 400.502 83.204 398.541 85.4108C396.64 87.6175 394.679 89.4871 392.656 91.0195C390.694 92.552 388.702 93.686 386.679 94.4216C384.657 95.2184 382.664 95.6169 380.703 95.6169ZM410.67 95.8008C409.812 95.8008 409.199 95.433 408.831 94.6974C408.402 94.0231 408.249 93.2569 408.372 92.3987C408.433 91.4793 408.801 90.6824 409.475 90.0081C410.149 89.2725 411.13 88.9048 412.417 88.9048C413.95 88.9048 415.574 88.3531 417.291 87.2497C419.007 86.085 420.785 84.4913 422.624 82.4685C424.401 80.4456 426.24 78.0244 428.14 75.2047C430.041 72.385 431.971 69.2588 433.933 65.8261C434.362 65.0292 435.006 64.6921 435.864 64.8147C436.722 64.876 437.427 65.2131 437.979 65.8261C438.53 66.4391 438.592 67.144 438.163 67.9409C435.711 72.5995 433.351 76.6758 431.083 80.1698C428.815 83.6638 426.608 86.5754 424.462 88.9048C422.256 91.1728 420.049 92.8891 417.842 94.0538C415.574 95.2184 413.184 95.8008 410.67 95.8008ZM450.665 95.8008C444.29 95.8008 439.478 93.9925 436.229 90.3759C433.042 86.7593 431.448 82.0394 431.448 76.2161C431.448 72.9673 432.031 69.6266 433.195 66.1939C434.421 62.6999 436.168 59.4818 438.436 56.5395C440.704 53.5359 443.524 51.1146 446.895 49.2757C450.267 47.4367 454.128 46.5172 458.481 46.5172C461.975 46.5172 464.978 47.0689 467.491 48.1723C470.066 49.2757 472.303 50.9307 474.204 53.1374C475.062 54.2408 475.368 55.1603 475.123 55.8958C474.878 56.6314 474.387 57.3363 473.652 58.0106C472.855 58.6849 472.058 59.0833 471.261 59.2059C470.464 59.2672 469.637 58.8688 468.779 58.0106C467.553 56.6621 466.082 55.6506 464.365 54.9764C462.71 54.2408 460.503 53.873 457.745 53.873C454.803 53.873 452.198 54.6086 449.93 56.0797C447.662 57.4896 445.761 59.3592 444.229 61.6885C442.758 64.0178 441.624 66.5004 440.827 69.1362C440.091 71.7107 439.723 74.1933 439.723 76.5839C439.723 78.7293 440.122 80.7521 440.919 82.6524C441.716 84.4913 442.972 85.9625 444.689 87.0658C446.405 88.1692 448.673 88.7209 451.493 88.7209C452.351 88.7209 452.964 89.0886 453.332 89.8242C453.699 90.4985 453.822 91.326 453.699 92.3068C453.577 93.2263 453.27 94.0231 452.78 94.6974C452.29 95.433 451.585 95.8008 450.665 95.8008ZM450.312 95.8008C449.76 95.8008 449.362 95.433 449.116 94.6974C448.871 94.0231 448.779 93.2263 448.841 92.3068C448.841 91.326 449.024 90.4985 449.392 89.8242C449.76 89.0886 450.25 88.7209 450.863 88.7209C454.296 88.7209 457.851 87.7094 461.529 85.6866C465.146 83.6638 468.977 80.6295 473.023 76.5839C477.068 72.4769 481.298 67.4198 485.711 61.4126C486.079 60.861 486.631 60.7384 487.366 61.0449C488.102 61.29 488.715 61.7191 489.205 62.3321C489.757 62.8838 489.849 63.4048 489.481 63.8952C485.006 70.9445 480.562 76.8291 476.149 81.549C471.735 86.2689 467.383 89.8242 463.092 92.2148C458.801 94.6055 454.541 95.8008 450.312 95.8008ZM490.309 95.8008C488.102 95.8008 486.171 95.2184 484.516 94.0538C482.922 92.8891 481.666 91.2341 480.746 89.0886C479.888 86.8819 479.459 84.3074 479.459 81.3651C479.459 78.4841 479.857 75.4499 480.654 72.2624C481.512 69.0749 482.769 65.9793 484.424 62.9757C486.079 59.9108 488.071 57.1524 490.401 54.7005C492.791 52.1873 495.519 50.1951 498.584 48.724C501.71 47.2528 505.143 46.5172 508.882 46.5172C511.272 46.5172 513.786 46.9463 516.422 47.8045C519.057 48.6014 521.479 49.7354 523.685 51.2065L522.214 57.6428C519.272 56.0491 516.636 55.007 514.307 54.5166C511.977 54.0262 509.832 53.7811 507.87 53.7811C505.357 53.7811 503.028 54.3634 500.882 55.528C498.798 56.6314 496.959 58.1332 495.366 60.0334C493.772 61.9337 492.393 64.0485 491.228 66.3778C490.125 68.7071 489.267 71.0671 488.654 73.4577C488.102 75.787 487.826 77.9631 487.826 79.9859C487.826 81.7022 488.01 83.204 488.378 84.4913C488.746 85.7786 489.297 86.7593 490.033 87.4336C490.83 88.1079 491.749 88.445 492.791 88.445C495.12 88.445 497.664 87.1884 500.423 84.6752C503.242 82.1007 506.215 78.3922 509.342 73.5496C512.468 68.6458 515.563 62.7305 518.628 55.8039L521.938 59.6657C518.383 67.757 514.766 74.4691 511.089 79.802C507.411 85.1349 503.825 89.1499 500.331 91.8471C496.837 94.4829 493.496 95.8008 490.309 95.8008ZM518.352 95.8008C515.778 95.8008 513.847 95.3104 512.56 94.3296C511.272 93.4101 510.414 92.2148 509.985 90.7437C509.617 89.2725 509.526 87.6788 509.709 85.9625C509.955 84.1848 510.322 82.4991 510.813 80.9054L520.007 49.7354C520.375 48.5707 520.835 47.8045 521.387 47.4367C522 47.0689 522.888 46.885 524.053 46.885C525.892 46.885 527.087 47.1609 527.639 47.7126C528.191 48.2642 528.283 49.1531 527.915 50.379L518.904 80.7215C517.985 83.8477 517.586 85.9931 517.709 87.1578C517.831 88.3224 518.598 88.9048 520.007 88.9048C520.866 88.9048 521.509 89.2725 521.938 90.0081C522.367 90.6824 522.521 91.4793 522.398 92.3987C522.337 93.2569 521.969 94.0231 521.295 94.6974C520.62 95.433 519.64 95.8008 518.352 95.8008ZM518.331 95.8008C517.473 95.8008 516.86 95.433 516.492 94.6974C516.063 94.0231 515.91 93.2569 516.032 92.3987C516.093 91.4793 516.461 90.6824 517.136 90.0081C517.81 89.2725 518.791 88.9048 520.078 88.9048C521.488 88.9048 523.143 88.3531 525.043 87.2497C526.943 86.085 529.119 84.2155 531.571 81.641C534.023 79.0664 536.782 75.6338 539.846 71.3429C542.973 66.9908 546.405 61.6578 550.144 55.3442C550.635 54.486 551.309 54.1182 552.167 54.2408C553.087 54.3021 553.792 54.6699 554.282 55.3442C554.834 56.0184 554.895 56.754 554.466 57.5509C550.114 65.2131 546.252 71.5268 542.881 76.4919C539.509 81.3958 536.414 85.2575 533.594 88.0772C530.836 90.8969 528.23 92.8891 525.779 94.0538C523.327 95.2184 520.844 95.8008 518.331 95.8008ZM553.638 95.8008C550.819 95.8008 548.489 95.1571 546.65 93.8699C544.873 92.5826 543.555 90.8663 542.697 88.7209C541.839 86.5754 541.409 84.1542 541.409 81.4571C541.471 78.6987 541.9 75.9096 542.697 73.0899L547.846 55.62H540.858C540.184 55.62 539.693 55.3135 539.387 54.7005C539.141 54.0875 539.172 53.1681 539.479 51.9421C539.785 50.7162 540.214 49.7967 540.766 49.1837C541.379 48.5707 542.053 48.2642 542.789 48.2642H550.144L555.385 29.9668C555.753 28.8022 556.213 28.0359 556.765 27.6681C557.378 27.3004 558.297 27.1165 559.523 27.1165C561.362 27.1165 562.527 27.3923 563.017 27.944C563.569 28.4957 563.661 29.3845 563.293 30.6104L558.052 48.2642H569.729C570.403 48.2642 570.863 48.5707 571.108 49.1837C571.415 49.7354 571.415 50.6549 571.108 51.9421C570.863 53.1068 570.434 54.0262 569.821 54.7005C569.208 55.3135 568.564 55.62 567.89 55.62H555.937L550.604 73.6416C549.807 76.2161 549.378 78.4841 549.317 80.4456C549.317 82.3459 549.562 83.9396 550.052 85.2269C550.543 86.4528 551.248 87.3723 552.167 87.9853C553.148 88.5983 554.221 88.9048 555.385 88.9048C556.244 88.9048 556.887 89.2725 557.316 90.0081C557.745 90.6824 557.899 91.4793 557.776 92.3987C557.653 93.2569 557.255 94.0231 556.581 94.6974C555.906 95.433 554.926 95.8008 553.638 95.8008ZM553.888 95.8008C553.03 95.8008 552.417 95.433 552.05 94.6974C551.62 94.0231 551.467 93.2569 551.59 92.3987C551.651 91.4793 552.019 90.6824 552.693 90.0081C553.367 89.2725 554.348 88.9048 555.635 88.9048C557.045 88.9048 558.67 88.1998 560.509 86.79C562.286 85.3188 564.401 83.0202 566.853 79.894C569.244 76.7678 572.063 72.6608 575.312 67.5731C578.622 62.4241 582.453 56.1717 586.805 48.8159C587.296 47.9578 587.97 47.59 588.828 47.7126C589.748 47.7739 590.483 48.1416 591.035 48.8159C591.648 49.4289 591.709 50.1338 591.219 50.9307C586.376 59.6963 582.177 66.9908 578.622 72.8141C575.067 78.5761 571.91 83.1427 569.152 86.5141C566.393 89.8855 563.819 92.2761 561.428 93.686C558.976 95.0958 556.463 95.8008 553.888 95.8008ZM584.321 95.8008C581.807 95.8008 579.907 95.341 578.62 94.4216C577.333 93.5021 576.505 92.3068 576.137 90.8356C575.77 89.3645 575.678 87.7707 575.862 86.0544C576.107 84.2768 576.444 82.5604 576.873 80.9054L585.884 49.7354C586.252 48.5707 586.711 47.8045 587.263 47.4367C587.876 47.0689 588.765 46.885 589.929 46.885C591.768 46.885 592.964 47.1609 593.515 47.7126C594.067 48.2642 594.159 49.1531 593.791 50.379L585.056 80.7215C584.076 83.909 583.646 86.085 583.769 87.2497C583.892 88.3531 584.658 88.9048 586.068 88.9048C586.926 88.9048 587.569 89.2725 587.999 90.0081C588.428 90.6824 588.581 91.4793 588.458 92.3987C588.336 93.2569 587.937 94.0231 587.263 94.6974C586.589 95.433 585.608 95.8008 584.321 95.8008ZM594.987 32.7252C593.699 32.7252 592.627 32.3268 591.768 31.5299C590.91 30.6717 590.481 29.4764 590.481 27.944C590.481 26.2276 591.002 24.6646 592.044 23.2547C593.086 21.8448 594.711 21.1399 596.917 21.1399C598.266 21.1399 599.369 21.5384 600.228 22.3352C601.086 23.1321 601.515 24.3274 601.515 25.9212C601.515 27.6375 600.994 29.2006 599.952 30.6104C598.91 32.0203 597.255 32.7252 594.987 32.7252ZM583.879 95.8008C583.021 95.8008 582.408 95.433 582.04 94.6974C581.611 94.0231 581.458 93.2569 581.58 92.3987C581.642 91.4793 582.009 90.6824 582.684 90.0081C583.358 89.2725 584.339 88.9048 585.626 88.9048C587.036 88.9048 588.66 88.1998 590.499 86.79C592.277 85.3188 594.392 83.0202 596.843 79.894C599.234 76.7678 602.054 72.6608 605.303 67.5731C608.613 62.4241 612.444 56.1717 616.796 48.8159C617.286 47.9578 617.961 47.59 618.819 47.7126C619.738 47.7739 620.474 48.1416 621.025 48.8159C621.638 49.4289 621.7 50.1338 621.209 50.9307C616.367 59.6963 612.168 66.9908 608.613 72.8141C605.057 78.5761 601.901 83.1427 599.142 86.5141C596.384 89.8855 593.809 92.2761 591.419 93.686C588.967 95.0958 586.453 95.8008 583.879 95.8008ZM619.003 95.9847C616.122 95.9847 613.823 95.4023 612.107 94.2377C610.452 93.073 609.256 91.5099 608.521 89.5484C607.846 87.5868 607.571 85.4414 607.693 83.1121C607.816 80.7215 608.214 78.3002 608.888 75.8483L616.336 49.6434C616.581 48.7853 616.949 48.111 617.44 47.6206C617.93 47.0689 618.941 46.7931 620.474 46.7931C622.435 46.7931 623.631 47.0996 624.06 47.7126C624.489 48.3255 624.55 49.1531 624.244 50.1951L616.888 75.8483C616.459 77.442 616.122 79.0051 615.876 80.5376C615.631 82.0087 615.57 83.3573 615.693 84.5833C615.876 85.8092 616.336 86.79 617.072 87.5255C617.869 88.2611 619.095 88.6289 620.75 88.6289C622.711 88.6289 624.673 87.9853 626.634 86.698C628.657 85.4108 630.557 83.6638 632.335 81.4571C634.174 79.2503 635.798 76.7984 637.208 74.1013C638.618 71.4042 639.691 68.6764 640.426 65.918C640.794 64.5082 641.131 63.129 641.438 61.7804C641.744 60.3706 641.867 58.9914 641.805 57.6428C640.518 56.7234 639.568 55.8039 638.955 54.8844C638.342 53.9036 638.036 52.7696 638.036 51.4824C638.036 50.0112 638.495 48.8159 639.415 47.8965C640.334 46.977 641.499 46.5172 642.909 46.5172C644.932 46.5172 646.433 47.4061 647.414 49.1837C648.456 50.9613 649.008 53.1987 649.069 55.8958C649.131 57.0605 649.1 58.2558 648.977 59.4818C648.916 60.6464 648.763 61.8724 648.518 63.1596C648.334 64.3856 648.058 65.6422 647.69 66.9295C646.709 70.4847 645.33 73.9787 643.552 77.4114C641.775 80.8441 639.599 83.9703 637.024 86.79C634.511 89.6097 631.722 91.8471 628.657 93.5021C625.653 95.1571 622.435 95.9847 619.003 95.9847ZM666.035 75.9402C662.48 75.9402 659.231 75.0514 656.288 73.2738C653.407 71.4961 650.864 68.891 648.657 65.4583C646.389 61.9643 644.397 57.7654 642.68 52.8616C642.313 51.6969 642.496 50.7775 643.232 50.1032C643.968 49.4289 644.856 49.1224 645.898 49.1837C646.879 49.245 647.584 49.9193 648.013 51.2065C649.301 54.7005 650.772 57.8267 652.427 60.5851C654.082 63.3435 656.013 65.5196 658.219 67.1133C660.487 68.6458 663.093 69.412 666.035 69.412C666.648 69.412 667.108 69.7492 667.414 70.4234C667.721 71.0364 667.874 71.8026 667.874 72.7221C667.874 73.5803 667.721 74.3465 667.414 75.0208C667.108 75.6338 666.648 75.9402 666.035 75.9402ZM675.413 95.8008C671.674 95.8008 668.548 94.9732 666.035 93.3182C663.583 91.6019 661.775 89.3032 660.61 86.4222C659.445 83.5412 658.863 80.2617 658.863 76.5839C658.863 73.5803 659.415 70.3621 660.518 66.9295C661.621 63.4355 663.215 60.156 665.299 57.0911C667.383 53.9649 669.958 51.4211 673.023 49.4596C676.088 47.498 679.612 46.5172 683.597 46.5172C685.865 46.5172 687.826 46.9157 689.481 47.7126C691.136 48.5094 692.393 49.6434 693.251 51.1146C694.171 52.5857 694.63 54.3634 694.63 56.4475C694.63 59.4511 693.65 62.1789 691.688 64.6308C689.726 67.0214 687.183 69.1055 684.056 70.8832C680.93 72.5995 677.528 73.8561 673.85 74.653C670.234 75.4499 666.709 75.7564 663.276 75.5725L663.92 69.0442C665.943 69.2894 668.242 69.1975 670.816 68.7684C673.391 68.3393 675.843 67.6344 678.172 66.6536C680.501 65.6728 682.432 64.4162 683.964 62.8838C685.497 61.3513 686.263 59.5431 686.263 57.4589C686.263 56.0491 685.865 55.099 685.068 54.6086C684.332 54.0569 683.382 53.7811 682.217 53.7811C679.888 53.7811 677.773 54.5473 675.873 56.0797C674.034 57.5509 672.471 59.4511 671.184 61.7804C669.897 64.1097 668.885 66.5617 668.15 69.1362C667.475 71.7107 667.138 74.0094 667.138 76.0322C667.138 77.9324 667.291 79.6488 667.598 81.1812C667.966 82.7137 668.517 84.0316 669.253 85.1349C670.05 86.177 671.031 87.0045 672.195 87.6175C673.36 88.1692 674.77 88.445 676.425 88.445C678.448 88.445 680.287 88.0466 681.942 87.2497C683.658 86.3915 685.252 85.2882 686.723 83.9396C688.255 82.5911 689.726 81.1199 691.136 79.5262C691.872 78.668 692.699 78.3615 693.619 78.6067C694.6 78.7906 695.397 79.2197 696.01 79.894C696.684 80.5682 697.052 81.2732 697.113 82.0087C697.235 82.7443 696.96 83.5718 696.285 84.4913C694.017 87.3723 691.719 89.6403 689.389 91.2954C687.06 92.9504 684.7 94.1151 682.309 94.7894C679.98 95.4636 677.681 95.8008 675.413 95.8008ZM737.485 94.2377C734.727 94.2377 733.716 93.0117 734.451 90.5598L759.369 3.39418C759.675 2.536 760.135 1.92302 760.748 1.55524C761.361 1.12615 762.342 0.911605 763.69 0.911605C765.1 0.911605 766.142 1.12615 766.817 1.55524C767.491 1.98432 767.644 2.68925 767.276 3.67001L743.462 86.8819H781.252C781.926 86.8819 782.386 87.1884 782.631 87.8014C782.938 88.3531 782.907 89.2725 782.539 90.5598C782.294 91.7245 781.865 92.6439 781.252 93.3182C780.7 93.9312 780.057 94.2377 779.321 94.2377H737.485ZM812.729 95.8008C808.683 95.8008 805.342 95.0345 802.707 93.5021C800.132 91.9696 798.201 89.8855 796.914 87.2497C795.688 84.6139 795.075 81.6716 795.075 78.4228C795.075 74.8062 795.688 71.1284 796.914 67.3892C798.14 63.65 799.918 60.2173 802.247 57.0911C804.576 53.9036 807.365 51.3598 810.614 49.4596C813.924 47.498 817.633 46.5172 821.74 46.5172C824.375 46.5172 826.613 46.977 828.452 47.8965C830.352 48.8159 831.793 50.1032 832.773 51.7582C833.815 53.352 834.336 55.2829 834.336 57.5509C834.336 60.0641 833.601 62.3628 832.13 64.4469C830.72 66.4697 828.789 68.278 826.337 69.8718C823.946 71.4655 821.219 72.8447 818.154 74.0094C815.089 75.1127 811.932 76.0628 808.683 76.8597C805.496 77.6566 802.37 78.3002 799.305 78.7906L799.948 72.2624C801.848 71.9559 803.963 71.5574 806.293 71.0671C808.622 70.5154 810.921 69.8718 813.189 69.1362C815.518 68.4006 817.633 67.5118 819.533 66.4697C821.433 65.4277 822.966 64.2323 824.13 62.8838C825.356 61.5352 825.969 59.9721 825.969 58.1945C825.969 56.6621 825.479 55.5587 824.498 54.8844C823.517 54.1488 822.261 53.7811 820.728 53.7811C818.215 53.7811 815.886 54.5166 813.74 55.9878C811.656 57.4589 809.817 59.3898 808.223 61.7804C806.691 64.171 805.496 66.7762 804.638 69.5959C803.779 72.4156 803.35 75.1434 803.35 77.7792C803.35 79.9246 803.687 81.8555 804.362 83.5718C805.097 85.2269 806.231 86.5141 807.764 87.4336C809.357 88.2918 811.38 88.7209 813.832 88.7209C814.69 88.7209 815.273 89.0886 815.579 89.8242C815.947 90.4985 816.07 91.326 815.947 92.3068C815.824 93.2263 815.487 94.0231 814.936 94.6974C814.384 95.433 813.648 95.8008 812.729 95.8008ZM812.757 95.8008C811.837 95.8008 811.224 95.433 810.918 94.6974C810.55 94.0231 810.458 93.2263 810.642 92.3068C810.765 91.326 811.102 90.4985 811.654 89.8242C812.205 89.0886 812.91 88.7209 813.768 88.7209C816.159 88.7209 818.887 87.924 821.952 86.3302C825.016 84.6752 828.572 81.8248 832.617 77.7792C836.602 73.7335 841.199 68.1248 846.409 60.9529C846.716 60.5238 847.237 60.4319 847.973 60.6771C848.769 60.861 849.413 61.2287 849.903 61.7804C850.455 62.3321 850.547 62.8838 850.179 63.4355C845.153 71.4042 840.433 77.7485 836.019 82.4685C831.667 87.1884 827.591 90.5904 823.791 92.6746C819.929 94.7587 816.251 95.8008 812.757 95.8008ZM850.913 95.8008C848.706 95.8008 846.775 95.2184 845.12 94.0538C843.526 92.8891 842.27 91.2341 841.35 89.0886C840.492 86.8819 840.063 84.3074 840.063 81.3651C840.063 78.4841 840.461 75.4499 841.258 72.2624C842.116 69.0749 843.373 65.9793 845.028 62.9757C846.683 59.9108 848.675 57.1524 851.005 54.7005C853.395 52.1873 856.123 50.1951 859.188 48.724C862.314 47.2528 865.747 46.5172 869.486 46.5172C871.877 46.5172 874.39 46.9463 877.026 47.8045C879.661 48.6014 882.083 49.7354 884.289 51.2065L882.818 57.6428C879.876 56.0491 877.24 55.007 874.911 54.5166C872.581 54.0262 870.436 53.7811 868.475 53.7811C865.961 53.7811 863.632 54.3634 861.487 55.528C859.402 56.6314 857.563 58.1332 855.97 60.0334C854.376 61.9337 852.997 64.0485 851.832 66.3778C850.729 68.7071 849.871 71.0671 849.258 73.4577C848.706 75.787 848.43 77.9631 848.43 79.9859C848.43 81.7022 848.614 83.204 848.982 84.4913C849.35 85.7786 849.901 86.7593 850.637 87.4336C851.434 88.1079 852.353 88.445 853.395 88.445C855.725 88.445 858.268 87.1884 861.027 84.6752C863.847 82.1007 866.819 78.3922 869.946 73.5496C873.072 68.6458 876.167 62.7305 879.232 55.8039L882.542 59.6657C878.987 67.757 875.371 74.4691 871.693 79.802C868.015 85.1349 864.429 89.1499 860.935 91.8471C857.441 94.4829 854.1 95.8008 850.913 95.8008ZM878.956 95.8008C876.382 95.8008 874.451 95.3104 873.164 94.3296C871.877 93.4101 871.018 92.2148 870.589 90.7437C870.222 89.2725 870.13 87.6788 870.313 85.9625C870.559 84.1848 870.926 82.4991 871.417 80.9054L880.612 49.7354C880.979 48.5707 881.439 47.8045 881.991 47.4367C882.604 47.0689 883.493 46.885 884.657 46.885C886.496 46.885 887.691 47.1609 888.243 47.7126C888.795 48.2642 888.887 49.1531 888.519 50.379L879.508 80.7215C878.589 83.8477 878.19 85.9931 878.313 87.1578C878.435 88.3224 879.202 88.9048 880.612 88.9048C881.47 88.9048 882.113 89.2725 882.542 90.0081C882.971 90.6824 883.125 91.4793 883.002 92.3987C882.941 93.2569 882.573 94.0231 881.899 94.6974C881.224 95.433 880.244 95.8008 878.956 95.8008ZM878.935 95.8008C878.077 95.8008 877.464 95.433 877.096 94.6974C876.667 94.0231 876.514 93.2569 876.636 92.3987C876.698 91.4793 877.065 90.6824 877.74 90.0081C878.414 89.2725 879.395 88.9048 880.682 88.9048C882.092 88.9048 883.716 88.1998 885.555 86.79C887.333 85.3188 889.447 83.0202 891.899 79.894C894.29 76.7678 897.11 72.6608 900.359 67.5731C903.669 62.4241 907.5 56.1717 911.852 48.8159C912.342 47.9578 913.017 47.59 913.875 47.7126C914.794 47.7739 915.53 48.1416 916.081 48.8159C916.694 49.4289 916.756 50.1338 916.265 50.9307C911.423 59.6963 907.224 66.9908 903.669 72.8141C900.113 78.5761 896.956 83.1427 894.198 86.5141C891.44 89.8855 888.865 92.2761 886.475 93.686C884.023 95.0958 881.509 95.8008 878.935 95.8008ZM902.014 95.6169C900.971 95.6169 900.021 95.4023 899.163 94.9732C898.366 94.5442 898.152 93.7779 898.52 92.6746L910.84 49.7354C911.208 48.5707 911.668 47.8045 912.22 47.4367C912.833 47.0689 913.721 46.885 914.886 46.885C916.725 46.885 917.92 47.1609 918.472 47.7126C919.024 48.2642 919.116 49.1531 918.748 50.379L914.518 64.9986C916.235 61.995 917.92 59.3592 919.575 57.0911C921.292 54.7618 922.977 52.8309 924.632 51.2985C926.288 49.7047 927.851 48.5094 929.322 47.7126C930.793 46.9157 932.141 46.5172 933.367 46.5172C934.532 46.5172 935.329 46.885 935.758 47.6206C936.248 48.3562 936.432 49.2144 936.31 50.1951C936.248 51.1759 935.881 52.0341 935.206 52.7696C934.532 53.5052 933.613 53.873 932.448 53.873C931.345 53.873 929.843 54.7005 927.943 56.3556C926.042 58.0106 923.897 60.4012 921.506 63.5274C919.116 66.5923 916.725 70.2702 914.334 74.561C911.944 78.7906 909.737 83.5105 907.714 88.7209L906.335 93.2263C906.151 94.0231 905.722 94.6055 905.048 94.9732C904.435 95.4023 903.423 95.6169 902.014 95.6169ZM942.222 55.528C940.75 55.528 939.402 55.4054 938.176 55.1603C937.011 54.8538 935.969 54.5779 935.05 54.3327C934.192 54.0262 933.364 53.873 932.567 53.873C931.403 53.873 930.606 53.5052 930.177 52.7696C929.686 52.0341 929.472 51.1759 929.533 50.1951C929.594 49.2144 929.962 48.3562 930.636 47.6206C931.311 46.885 932.23 46.5172 933.395 46.5172C934.866 46.5172 936.184 46.7318 937.348 47.1609C938.574 47.59 939.739 48.0191 940.842 48.4481C941.946 48.8772 943.11 49.0918 944.336 49.0918C945.072 49.0918 945.808 48.9998 946.543 48.8159C947.34 48.632 948.229 48.3255 949.21 47.8965C949.823 47.59 950.436 47.7126 951.049 48.2642C951.662 48.8159 951.968 49.5208 951.968 50.379C952.029 51.2372 951.478 52.0341 950.313 52.7696C948.106 54.0569 946.39 54.8538 945.164 55.1603C943.938 55.4054 942.957 55.528 942.222 55.528ZM977.897 95.8008C975.323 95.8008 973.392 95.3104 972.104 94.3296C970.817 93.4101 969.99 92.2148 969.622 90.7437C969.254 89.2725 969.162 87.6788 969.346 85.9625C969.591 84.1848 969.928 82.4991 970.357 80.9054L975.874 62.4241C976.365 60.8303 976.64 59.3898 976.702 58.1026C976.824 56.8153 976.579 55.8039 975.966 55.0683C975.353 54.2714 974.219 53.873 972.564 53.873C970.541 53.873 968.304 54.7618 965.852 56.5395C963.461 58.2558 961.009 60.7077 958.496 63.8952C956.044 67.0214 953.592 70.7606 951.14 75.1127C948.75 79.4036 946.543 84.1848 944.52 89.4564L943.509 93.2263C943.325 94.0231 942.896 94.6055 942.222 94.9732C941.609 95.4023 940.597 95.6169 939.187 95.6169C938.145 95.6169 937.195 95.4023 936.337 94.9732C935.54 94.5442 935.326 93.7779 935.693 92.6746L948.014 49.7354C948.382 48.5707 948.842 47.8045 949.393 47.4367C950.006 47.0689 950.895 46.885 952.06 46.885C953.899 46.885 955.094 47.1609 955.646 47.7126C956.198 48.2642 956.29 49.1531 955.922 50.379L951.784 64.7227C953.562 61.7191 955.401 59.114 957.301 56.9072C959.262 54.6392 961.224 52.739 963.186 51.2065C965.208 49.6128 967.231 48.4481 969.254 47.7126C971.277 46.9157 973.3 46.5172 975.323 46.5172C978.142 46.5172 980.318 47.1915 981.851 48.5401C983.444 49.8273 984.395 51.7889 984.701 54.4247C985.008 56.9992 984.548 60.2786 983.322 64.263L978.541 80.7215C977.56 83.8477 977.131 85.9931 977.253 87.1578C977.376 88.3224 978.142 88.9048 979.552 88.9048C980.41 88.9048 981.054 89.2725 981.483 90.0081C981.912 90.6824 982.065 91.4793 981.943 92.3987C981.881 93.2569 981.514 94.0231 980.839 94.6974C980.165 95.433 979.184 95.8008 977.897 95.8008ZM977.796 95.8008C976.938 95.8008 976.325 95.433 975.957 94.6974C975.528 94.0231 975.374 93.2569 975.497 92.3987C975.558 91.4793 975.926 90.6824 976.6 90.0081C977.275 89.2725 978.255 88.9048 979.543 88.9048C980.83 88.9048 982.332 88.5983 984.048 87.9853C985.764 87.3723 987.91 86.3609 990.484 84.951C992.998 83.5412 996.124 81.6103 999.863 79.1584C1000.72 78.668 1001.49 78.5761 1002.16 78.8825C1002.84 79.1277 1003.33 79.6181 1003.63 80.3537C1003.94 81.0893 1004 81.8861 1003.82 82.7443C1003.69 83.6025 1003.17 84.3074 1002.25 84.8591C998.147 87.5562 994.622 89.7323 991.68 91.3873C988.676 92.9811 986.102 94.1151 983.956 94.7894C981.811 95.4636 979.757 95.8008 977.796 95.8008ZM1002.81 78.4228C1004.83 77.1356 1007.1 75.6338 1009.61 73.9174C1012.12 72.2011 1014.51 70.3928 1016.78 68.4926C1019.11 66.5923 1021.01 64.6921 1022.48 62.7918C1023.95 60.8916 1024.69 59.114 1024.69 57.4589C1024.69 56.0491 1024.29 55.099 1023.49 54.6086C1022.76 54.0569 1021.81 53.7811 1020.64 53.7811C1018.31 53.7811 1016.2 54.5473 1014.3 56.0797C1012.46 57.5509 1010.9 59.4511 1009.61 61.7804C1008.32 64.1097 1007.31 66.5617 1006.58 69.1362C1005.9 71.7107 1005.56 74.0094 1005.56 76.0322C1005.56 77.9324 1005.72 79.6794 1006.02 81.2732C1006.39 82.8056 1007 84.1235 1007.86 85.2269C1008.72 86.3302 1009.79 87.1884 1011.08 87.8014C1012.43 88.4144 1014.05 88.7209 1015.95 88.7209C1016.81 88.7209 1017.39 89.0886 1017.7 89.8242C1018.07 90.4985 1018.19 91.326 1018.07 92.3068C1017.95 93.2263 1017.61 94.0231 1017.06 94.6974C1016.51 95.433 1015.77 95.8008 1014.85 95.8008C1010.74 95.8008 1007.4 94.9732 1004.83 93.3182C1002.25 91.6019 1000.35 89.3032 999.127 86.4222C997.901 83.5412 997.288 80.2617 997.288 76.5839C997.288 73.5803 997.84 70.3621 998.944 66.9295C1000.05 63.4355 1001.64 60.156 1003.72 57.0911C1005.81 53.9649 1008.38 51.4211 1011.45 49.4596C1014.51 47.498 1018.04 46.5172 1022.02 46.5172C1024.29 46.5172 1026.25 46.9157 1027.91 47.7126C1029.56 48.5094 1030.82 49.6434 1031.68 51.1146C1032.6 52.5857 1033.06 54.3634 1033.06 56.4475C1033.06 58.8381 1032.38 61.1675 1031.03 63.4355C1029.68 65.7035 1027.75 68.0022 1025.24 70.3315C1022.79 72.5995 1019.91 74.8982 1016.6 77.2275C1013.29 79.5568 1009.64 81.9168 1005.66 84.3074L1002.81 78.4228ZM1014.88 95.8008C1014.33 95.8008 1013.96 95.433 1013.77 94.6974C1013.53 94.0231 1013.44 93.2263 1013.5 92.3068C1013.56 91.326 1013.81 90.4985 1014.23 89.8242C1014.66 89.0886 1015.22 88.7209 1015.89 88.7209C1018.22 88.7209 1020.67 88.1079 1023.25 86.8819C1025.76 85.656 1028.52 83.6331 1031.52 80.8134C1034.52 77.9324 1037.87 74.1013 1041.54 69.3201C1045.28 64.4775 1049.48 58.4703 1054.14 51.2985C1054.45 50.8081 1055 50.7162 1055.79 51.0226C1056.59 51.2678 1057.27 51.6969 1057.82 52.3099C1058.43 52.8616 1058.58 53.4133 1058.28 53.9649C1053.62 61.6272 1049.36 68.1554 1045.5 73.5496C1041.7 78.8825 1038.08 83.1734 1034.65 86.4222C1031.21 89.671 1027.9 92.0616 1024.72 93.594C1021.47 95.0652 1018.19 95.8008 1014.88 95.8008ZM1045.77 95.6169C1044.73 95.6169 1043.78 95.4023 1042.92 94.9732C1042.12 94.5442 1041.91 93.7779 1042.28 92.6746L1054.6 49.7354C1054.97 48.5707 1055.42 47.8045 1055.98 47.4367C1056.59 47.0689 1057.48 46.885 1058.64 46.885C1060.48 46.885 1061.68 47.1609 1062.23 47.7126C1062.78 48.2642 1062.87 49.1531 1062.5 50.379L1058.18 65.1825C1060.02 62.1789 1061.86 59.5124 1063.7 57.1831C1065.6 54.8538 1067.44 52.8922 1069.22 51.2985C1071.06 49.7047 1072.8 48.5094 1074.46 47.7126C1076.11 46.9157 1077.61 46.5172 1078.96 46.5172C1080.62 46.5172 1082.06 46.9157 1083.28 47.7126C1084.57 48.5094 1085.58 49.4596 1086.32 50.5629C1086.81 51.1759 1086.99 51.8502 1086.87 52.5857C1086.75 53.26 1086.38 53.9343 1085.77 54.6086C1085.09 55.2829 1084.45 55.7732 1083.84 56.0797C1083.22 56.3862 1082.67 56.2636 1082.18 55.7119C1081.57 55.2216 1080.89 54.7925 1080.16 54.4247C1079.42 54.0569 1078.72 53.873 1078.04 53.873C1076.45 53.873 1074.52 54.7618 1072.25 56.5395C1069.98 58.2558 1067.59 60.7384 1065.08 63.9872C1062.63 67.1746 1060.14 70.9751 1057.63 75.3886C1055.18 79.7407 1052.94 84.522 1050.92 89.7323L1050.09 93.2263C1049.91 94.0231 1049.48 94.6055 1048.8 94.9732C1048.19 95.4023 1047.18 95.6169 1045.77 95.6169Z" fill="black"/>
</svg>
