<?xml version="1.0" encoding="UTF-8"?>
<svg id="Layer_2" data-name="Layer 2" xmlns="http://www.w3.org/2000/svg" xmlns:xlink="http://www.w3.org/1999/xlink" viewBox="0 0 822.25 1286.25">
  <defs>
    <style>
      .cls-1 {
        fill: #a7a7a7;
      }

      .cls-2 {
        fill: #38383a;
      }

      .cls-3 {
        fill: #fff;
        stroke: #a0a0a0;
      }

      .cls-3, .cls-4, .cls-5, .cls-6, .cls-7 {
        stroke-miterlimit: 10;
      }

      .cls-3, .cls-4, .cls-6 {
        stroke-width: .25px;
      }

      .cls-8 {
        fill: #221e1f;
      }

      .cls-9 {
        fill: #373838;
      }

      .cls-10 {
        fill: #222;
      }

      .cls-11, .cls-12, .cls-13, .cls-14, .cls-15, .cls-16, .cls-17 {
        isolation: isolate;
      }

      .cls-12 {
        letter-spacing: -.02em;
      }

      .cls-12, .cls-13, .cls-14, .cls-15, .cls-16, .cls-17 {
        font-family: NotoSansKR-Light, 'Noto Sans KR';
        font-weight: 300;
      }

      .cls-12, .cls-13, .cls-15, .cls-16, .cls-17 {
        fill: #2c2d2c;
      }

      .cls-12, .cls-13, .cls-17 {
        font-size: 30px;
      }

      .cls-18 {
        fill: #323232;
      }

      .cls-4 {
        stroke: #5b5b5b;
      }

      .cls-4, .cls-5, .cls-6, .cls-7 {
        fill: none;
      }

      .cls-13 {
        letter-spacing: -.18em;
      }

      .cls-19 {
        fill: #1b1c1c;
      }

      .cls-5 {
        stroke-width: 2px;
      }

      .cls-5, .cls-6 {
        stroke: #796666;
      }

      .cls-20 {
        fill: #3fa9f5;
      }

      .cls-14 {
        fill: #9f9e9e;
        font-size: 20px;
        letter-spacing: -.03em;
      }

      .cls-21 {
        fill: #272727;
      }

      .cls-15 {
        font-size: 22px;
        letter-spacing: -.02em;
      }

      .cls-16 {
        font-size: 25.36px;
        letter-spacing: -.03em;
      }

      .cls-22 {
        fill: #464646;
      }

      .cls-23 {
        fill: #3f3e3e;
      }

      .cls-7 {
        stroke: #000;
        stroke-width: 1.7px;
      }

      .cls-24 {
        fill: url(#linear-gradient);
      }

      .cls-17 {
        letter-spacing: -.03em;
      }
    </style>
    <linearGradient id="linear-gradient" x1="75.68" y1="1132.36" x2="108.65" y2="1051.89" gradientTransform="translate(0 1286.25) scale(1 -1)" gradientUnits="userSpaceOnUse">
      <stop offset="0" stop-color="#4d5da9"/>
      <stop offset=".03" stop-color="#575ba7"/>
      <stop offset=".18" stop-color="#9254a1"/>
      <stop offset=".3" stop-color="#b7509d"/>
      <stop offset=".36" stop-color="#c54f9c"/>
      <stop offset=".69" stop-color="#ef514e"/>
      <stop offset="1" stop-color="#f3cd76"/>
    </linearGradient>
  </defs>
  <g id="_수정_텍스트_사진" data-name=" 수정 텍스트 사진">
    <rect class="cls-3" x=".12" y=".12" width="822" height="1286"/>
    <line class="cls-6" x1="48.65" y1="125.49" x2="773.38" y2="125.49"/>
    <line class="cls-4" x1="50.65" y1="1174.01" x2="775.38" y2="1174.01"/>
    <line class="cls-5" x1="307.3" y1="125.49" x2="512.61" y2="125.49"/>
    <g>
      <path class="cls-8" d="m319.64,46.83c-.32.2-.67.35-1.06.44-.39.09-.76.16-1.13.21-.36.05-.59.07-.68.07-.96,0-1.9-.27-2.83-.82s-1.79-1.41-2.56-2.59c-.09-.14-.23-.32-.41-.55s-.27-.39-.27-.48c0-.23.17-.43.51-.61s.73-.37,1.16-.55.84-.32,1.23-.41.65-.14.78-.14c.91,0,1.81.23,2.7.68.89.46,1.6,1.3,2.15,2.53.09.14.26.38.51.72s.38.58.38.72c0,.32-.16.58-.48.79h0Zm6.69,23.31c-.36,1.18-.88,2.29-1.54,3.31s-1.49,1.87-2.49,2.53c-1,.66-2.23.99-3.69.99-1.14,0-2.3-.39-3.48-1.16-1.18-.82-1.99-1.89-2.42-3.21-.43-1.32-.65-2.59-.65-3.82,0-.36.02-.91.07-1.64.05-.73.07-1.62.07-2.66v-7.51c0-.36-.01-.75-.03-1.16s-.08-.8-.17-1.16c-.05-.18-.12-.39-.24-.61-.11-.23-.17-.39-.17-.48,0-.18.11-.33.34-.44s.48-.19.75-.24c.27-.05.53-.07.78-.07h.38c.14,0,.46,0,.96.03s1.02.1,1.57.24c.55.14,1.04.35,1.47.65.43.3.65.72.65,1.26.05.14-.03.39-.24.75-.2.36-.4,1-.58,1.91-.05.36-.09.69-.14.99s-.09.63-.14.99c-.05.36-.09.81-.14,1.33-.05.52-.09,1.19-.14,2.01v4.1c0,.73.02,1.47.07,2.22.05.75.15,1.43.31,2.05s.42,1.11.79,1.5c.36.39.84.58,1.43.58.86,0,1.55-.25,2.05-.75s.89-.93,1.16-1.3c.5-.68.89-1.54,1.16-2.56s.52-2.08.75-3.17l.14-.68c.14-.68.55-1.02,1.23-1.02s1.02.48,1.02,1.43v.34l-.14,1.02c-.14,1.09-.39,2.23-.75,3.41h0Z"/>
      <path class="cls-8" d="m335.58,65.93c-.43,1.16-.81,2.37-1.13,3.62s-.58,2.5-.78,3.75c-.21,1.25-.42,2.45-.65,3.58-.09.27-.44.46-1.06.55-.61.09-1.06.14-1.33.14-.82,0-1.49-.05-2.01-.14-.52-.09-.92-.31-1.19-.65-.27-.34-.48-.86-.61-1.57-.14-.71-.25-1.65-.34-2.83l.89-20.27c0-.59.32-.89.96-.89.23,0,.55.03.96.1s.84.17,1.3.31c.46.14.84.31,1.16.51.32.2.48.44.48.72v13.86s.11-.23.21-.55c.32-.82.71-1.83,1.16-3.04.46-1.21.96-2.35,1.5-3.45.55-1.09,1.13-2.02,1.74-2.8.61-.77,1.24-1.16,1.88-1.16.82,0,1.44.19,1.88.58.43.39.76.88.99,1.47.23.59.36,1.23.41,1.91.05.68.07,1.34.07,1.98,0,.46-.05,1.21-.14,2.25-.09,1.05-.14,2.62-.14,4.71,0,1.18.11,2.25.34,3.21s.68,1.43,1.37,1.43c.5,0,.96-.23,1.37-.68.41-.46.78-1.02,1.13-1.71.34-.68.63-1.41.85-2.18.23-.77.36-1.5.41-2.18.05-.86.39-1.3,1.02-1.3.41,0,.68.14.82.41.14.27.21.59.21.96v.14c-.05.91-.22,1.93-.51,3.07s-.73,2.21-1.3,3.21-1.31,1.84-2.22,2.53c-.91.68-2.02,1.02-3.34,1.02-2.05,0-3.36-.74-3.92-2.22-.57-1.48-.85-3.67-.85-6.59l.14-4.98c-.68.96-1.24,2.01-1.67,3.17h-.06Z"/>
      <path class="cls-8" d="m364.48,75.93c-.73.59-1.56,1.02-2.49,1.3s-1.87.44-2.8.51-1.6.1-2.01.1c-.64,0-1.42-.07-2.35-.2s-1.84-.35-2.73-.65-1.64-.72-2.25-1.26-.92-1.23-.92-2.05c0-.5.19-.85.58-1.06s.76-.31,1.13-.31c.5,0,.99.18,1.47.55.48.36.98.75,1.5,1.16s1.1.8,1.74,1.16c.64.36,1.37.55,2.18.55.36,0,.85-.12,1.47-.38.61-.25.92-.69.92-1.33s-.26-1.25-.79-1.84c-.52-.59-1.18-1.21-1.98-1.84-.8-.64-1.65-1.3-2.56-1.98s-1.76-1.42-2.56-2.22-1.46-1.67-1.98-2.63c-.52-.96-.78-2-.78-3.14,0-1.59.51-2.93,1.54-4.03,1.02-1.09,2.23-1.96,3.62-2.59,1.39-.64,2.81-1.09,4.27-1.37s2.59-.41,3.41-.41c.77,0,1.55.16,2.32.48.77.32,1.16.93,1.16,1.84,0,.27-.06.67-.17,1.19s-.3,1.04-.55,1.54-.58.94-.99,1.33-.93.58-1.57.58c-.18,0-.36-.08-.55-.24-.18-.16-.39-.34-.61-.55-.23-.2-.47-.39-.72-.55s-.53-.24-.85-.24c-1.59,0-2.71.47-3.34,1.4-.64.93-.96,1.92-.96,2.97,0,.91.53,1.87,1.6,2.87s2.25,2,3.55,3,2.48,1.99,3.55,2.97c1.07.98,1.6,1.92,1.6,2.83,0,1.09-.36,1.93-1.09,2.52v.02Z"/>
      <path class="cls-8" d="m368.99,58.19c.09-2.41.18-4.64.27-6.69,0-.36-.36-.61-1.09-.75s-1.55-.27-2.46-.41-1.73-.35-2.46-.65c-.73-.3-1.09-.79-1.09-1.47,0-.59.59-.93,1.77-1.02s2.94-.14,5.26-.14c.18,0,.31-.27.38-.82s.11-1.24.14-2.08c.02-.84.05-1.74.07-2.7.02-.96.06-1.85.1-2.7s.12-1.54.24-2.08c.11-.55.26-.82.44-.82.23,0,.64.05,1.23.14s1.21.22,1.84.38c.64.16,1.19.35,1.67.58.48.23.72.48.72.75l-.75,8.87c0,.27.24.47.72.58s1.09.18,1.84.2,1.55.03,2.39.03,1.64.07,2.39.2c.75.14,1.37.35,1.84.65.48.3.72.74.72,1.33,0,.09-.05.24-.14.44-.09.21-.2.31-.34.31-.09,0-.22-.07-.38-.21s-.58-.2-1.26-.2c-.18,0-.68.02-1.5.07s-1.68.11-2.59.2-1.74.19-2.49.31c-.75.11-1.17.26-1.26.44-.05.09-.1.63-.17,1.6-.07.98-.14,2.26-.21,3.86s-.12,3.42-.17,5.49-.07,4.24-.07,6.52c0,.86.05,1.71.14,2.52.09.82.23,1.56.41,2.22s.42,1.19.72,1.6.65.61,1.06.61c.59,0,1.14-.25,1.64-.75s.96-1.18,1.37-2.05c.41-.86.77-1.84,1.09-2.93.32-1.09.59-2.21.82-3.34.14-.68.3-1.17.48-1.47s.46-.44.82-.44c.32,0,.6.1.85.31s.38.67.38,1.4c0,.46-.02.75-.07.89-.14.82-.4,1.95-.79,3.38s-.91,2.84-1.57,4.23c-.66,1.39-1.47,2.6-2.42,3.65s-2.07,1.57-3.34,1.57-2.3-.35-3.21-1.06-1.67-1.68-2.29-2.93c-.61-1.25-1.08-2.73-1.4-4.44s-.48-3.54-.48-5.49v-.61c.05-2.32.11-4.69.2-7.1v.02Z"/>
      <path class="cls-8" d="m410.29,72.46c-.36.86-.83,1.69-1.4,2.49-.57.8-1.23,1.47-1.98,2.01-.75.55-1.58.82-2.49.82-1.37,0-2.56-.52-3.58-1.57s-1.65-2.53-1.88-4.44c-.27.73-.59,1.57-.96,2.53-.36.96-.82,1.84-1.37,2.66-.55.82-1.17,1.51-1.88,2.08s-1.54.85-2.49.85c-.27,0-.48-.02-.61-.07-.14-.05-.28-.1-.44-.17s-.34-.13-.55-.17c-.21-.05-.49-.07-.85-.07-1.09,0-2.01-.35-2.76-1.06s-1.35-1.6-1.81-2.7c-.46-1.09-.78-2.29-.99-3.58-.2-1.3-.31-2.51-.31-3.65,0-2.73.15-5.32.44-7.78.3-2.46.78-4.63,1.47-6.52.68-1.89,1.57-3.39,2.66-4.5s2.41-1.67,3.96-1.67c.91,0,1.6.08,2.08.24.48.16.92.34,1.33.55.41.2.85.42,1.33.65.48.23,1.15.41,2.01.55.96.55,1.63,1.19,2.01,1.95.39.75.64,1.56.75,2.42s.15,1.76.1,2.7,0,1.85.14,2.76c0,.05.1.11.31.21.2.09.44.19.72.31s.51.27.72.48.31.47.31.79v.27c-.46,1.18-.73,2.23-.82,3.14s-.14,2-.14,3.28c0,.64.03,1.33.1,2.08s.18,1.46.34,2.12.4,1.21.72,1.64.73.65,1.23.65c.55,0,1.04-.27,1.47-.82s.8-1.17,1.09-1.88c.3-.71.55-1.42.75-2.15s.33-1.27.38-1.64c.09-.55.32-.82.68-.82.23,0,.44.12.65.38.21.25.31.69.31,1.33v.51c0,.16-.02.35-.07.58-.09.64-.32,1.39-.68,2.25v-.02Zm-12.08-15.08c-.09-.68-.25-1.32-.48-1.91s-.57-1.09-1.02-1.5-1.07-.61-1.84-.61c-1.27,0-2.31.58-3.11,1.74s-1.42,2.53-1.88,4.1-.75,3.19-.89,4.85c-.14,1.66-.2,2.97-.2,3.92,0,.73.03,1.6.1,2.63.07,1.02.19,1.99.38,2.9.18.91.44,1.68.79,2.32.34.64.78.96,1.33.96,1.32,0,2.33-.51,3.04-1.54.71-1.02,1.24-2.3,1.6-3.82.36-1.52.63-3.16.79-4.91s.31-3.36.44-4.81c.09-.77.3-1.26.61-1.47.32-.2.48-.35.48-.44v-.61c0-.5-.05-1.09-.14-1.77v-.03Z"/>
      <path class="cls-8" d="m432.67,80.38c-.41.18-.8.27-1.16.27l-1.37-.14c-.23,0-.34.14-.34.41l-.07.82c.05,1.23.07,2.78.07,4.64v5.39c0,1.82-.06,3.61-.17,5.36-.11,1.75-.38,3.32-.78,4.71-.41,1.39-.99,2.5-1.74,3.34s-1.79,1.26-3.11,1.26c-1.14,0-2.33-.06-3.58-.17s-2.39-.4-3.41-.85c-1.02-.46-1.87-1.13-2.53-2.01-.66-.89-.99-2.08-.99-3.58s.17-3.04.51-4.61.83-3.09,1.47-4.57,1.4-2.89,2.29-4.23c.89-1.34,1.85-2.54,2.9-3.58.55-.55,1.15-1.1,1.81-1.67s1.24-1.04,1.74-1.4v-.07c.09-.96.16-1.91.21-2.87.04-.96.07-1.93.07-2.94-.23.41-.5.97-.82,1.67-.32.71-.69,1.38-1.13,2.01-.43.64-.92,1.19-1.47,1.67-.55.48-1.16.72-1.84.72-.36,0-.68-.07-.96-.21-.27-.14-.66-.2-1.16-.2-1.28-.09-2.33-.43-3.17-1.02-.84-.59-1.5-1.41-1.98-2.46-.48-1.05-.81-2.29-.99-3.72s-.27-3.04-.27-4.81c0-2.14.12-4.35.38-6.62.25-2.28.69-4.36,1.33-6.25.64-1.89,1.49-3.44,2.56-4.64,1.07-1.21,2.42-1.81,4.06-1.81.18,0,.42.07.72.21s.61.28.96.44l1.02.48c.34.16.6.26.78.31.91.18,1.75.41,2.53.68.77.27,1.43.63,1.98,1.06.54.43.98,1,1.3,1.71.32.71.48,1.58.48,2.63,0,.73-.06,1.39-.17,1.98-.11.59-.17,1.34-.17,2.25,0,.36.14.61.41.75s.58.25.92.34c.34.09.65.19.92.31.27.11.41.35.41.72,0,.09-.1.31-.31.65-.2.34-.33.56-.38.65-.14.36-.25.94-.34,1.74-.09.8-.16,1.66-.21,2.59-.05.93-.08,1.89-.1,2.87-.02.98-.03,1.85-.03,2.63v2.35c0,.98.02,1.79.07,2.42h.27c.09,0,.18-.01.27-.03s.16-.03.21-.03c.41,0,.97.12,1.67.38.71.25,1.06.63,1.06,1.13,0,.46-.2.77-.61.96l-.02-.02Zm-8.26-23.75c-.09-.64-.25-1.24-.48-1.81s-.56-1.05-.99-1.43-.97-.58-1.6-.58c-.86,0-1.67.34-2.42,1.02s-1.41,1.65-1.98,2.9-1.02,2.78-1.36,4.57-.51,3.83-.51,6.11c0,.96.04,1.95.1,2.97.07,1.02.18,1.95.34,2.76.16.82.41,1.5.75,2.05s.79.82,1.33.82c.96,0,1.8-.41,2.53-1.23s1.33-1.83,1.81-3.04.84-2.46,1.09-3.75.4-2.42.44-3.38c.05-1.32.11-2.22.21-2.7.09-.48.18-.78.27-.92.27-.36.44-.8.51-1.3s.1-.96.1-1.37c0-.5-.05-1.07-.14-1.71v.02Zm-3.11,28.53c-.93,1.32-1.74,2.75-2.42,4.3-.68,1.55-1.22,3.12-1.6,4.71-.39,1.59-.58,3.03-.58,4.3,0,.46.04.96.14,1.5.09.55.24,1.06.44,1.54.21.48.5.88.89,1.19.39.32.85.48,1.4.48.96,0,1.74-.4,2.35-1.19.62-.8,1.09-1.74,1.43-2.83.34-1.09.57-2.21.68-3.34.11-1.14.17-2.05.17-2.73v-.61c0-.27.01-.8.03-1.57s.03-1.85.03-3.24v-5.56c-1.05.73-2.04,1.75-2.97,3.07v-.02Z"/>
      <path class="cls-8" d="m455.08,70.31c-.2,1.21-.57,2.48-1.09,3.82s-1.23,2.54-2.12,3.58c-.89,1.05-2.01,1.57-3.38,1.57-1.46,0-2.62-.51-3.48-1.54-.86-1.02-1.52-2.25-1.98-3.69-.46-1.43-.75-2.93-.89-4.5s-.21-2.88-.21-3.92c0-1.18.07-2.38.21-3.58.14-1.21.23-2.4.27-3.58,0-.36-.18-.59-.55-.68-.36-.09-.71-.14-1.02-.14-.55,0-.89.07-1.02.2-.14.14-.23.3-.27.48l-.27,2.18c-.18,1.46-.38,2.85-.58,4.2-.2,1.34-.43,2.53-.68,3.55-.25,1.02-.55,1.84-.89,2.46s-.74.92-1.19.92h-.07c-.18,0-.35-.05-.51-.14s-.24-.32-.24-.68c0-.18.05-.46.14-.82.36-1.59.59-2.91.68-3.96s.16-1.98.21-2.8v-.48c0-.23.01-.5.03-.82s.03-.71.03-1.16v-3.34c0-.55-.04-1.14-.14-1.77l-.21-4.03c0-.27.11-.52.34-.75s.52-.43.89-.61c.36-.18.75-.32,1.16-.41s.77-.14,1.09-.14c.77,0,1.16.5,1.16,1.5v.34l-.07,1.5v.41c0,.32.07.51.2.58.14.07.41.15.82.24h.21c.36.05.96.09,1.77.14.82.05,1.64.14,2.46.27.82.14,1.54.35,2.15.65.61.3.92.72.92,1.26,0,.18-.05.44-.14.79s-.2.68-.34,1.02c-.14.34-.25.65-.34.92-.09.27-.14.45-.14.55-.82,3.14-1.23,6.42-1.23,9.83,0,.27.02.77.07,1.5.05.73.14,1.48.27,2.25.14.77.34,1.46.61,2.05.27.59.61.89,1.02.89.68,0,1.3-.42,1.84-1.26.55-.84,1.02-1.82,1.43-2.94s.74-2.24.99-3.38.42-1.98.51-2.53c.09-.5.24-.81.44-.92s.4-.17.58-.17c.64,0,.96.41.96,1.23,0,.09-.01.33-.03.72s-.06.67-.1.85c0,.32-.1,1.08-.31,2.29h.03Z"/>
      <path class="cls-8" d="m481.46,72.46c-.36.86-.83,1.69-1.4,2.49-.57.8-1.23,1.47-1.98,2.01s-1.58.82-2.49.82c-1.37,0-2.56-.52-3.58-1.57s-1.65-2.53-1.88-4.44c-.27.73-.59,1.57-.96,2.53-.36.96-.82,1.84-1.37,2.66-.55.82-1.17,1.51-1.88,2.08s-1.54.85-2.49.85c-.27,0-.48-.02-.61-.07s-.28-.1-.44-.17-.34-.13-.55-.17c-.21-.05-.49-.07-.85-.07-1.09,0-2.01-.35-2.76-1.06s-1.35-1.6-1.81-2.7c-.46-1.09-.79-2.29-.99-3.58s-.31-2.51-.31-3.65c0-2.73.15-5.32.44-7.78.3-2.46.79-4.63,1.47-6.52s1.57-3.39,2.66-4.5,2.41-1.67,3.96-1.67c.91,0,1.6.08,2.08.24.48.16.92.34,1.33.55.41.2.85.42,1.33.65.48.23,1.15.41,2.01.55.96.55,1.63,1.19,2.01,1.95.39.75.64,1.56.75,2.42s.15,1.76.1,2.7c-.04.93,0,1.85.14,2.76,0,.05.1.11.31.21.2.09.44.19.72.31.27.11.51.27.72.48.21.2.31.47.31.79v.27c-.46,1.18-.73,2.23-.82,3.14s-.14,2-.14,3.28c0,.64.03,1.33.1,2.08s.18,1.46.34,2.12.4,1.21.72,1.64.73.65,1.23.65c.55,0,1.04-.27,1.47-.82s.8-1.17,1.09-1.88.55-1.42.75-2.15c.21-.73.33-1.27.38-1.64.09-.55.32-.82.68-.82.23,0,.44.12.65.38.2.25.31.69.31,1.33v.51c0,.16-.02.35-.07.58-.09.64-.32,1.39-.68,2.25v-.02Zm-12.08-15.08c-.09-.68-.25-1.32-.48-1.91s-.57-1.09-1.02-1.5-1.07-.61-1.84-.61c-1.27,0-2.31.58-3.11,1.74s-1.42,2.53-1.88,4.1-.75,3.19-.89,4.85c-.14,1.66-.2,2.97-.2,3.92,0,.73.03,1.6.1,2.63.07,1.02.19,1.99.38,2.9.18.91.44,1.68.79,2.32.34.64.79.96,1.33.96,1.32,0,2.33-.51,3.04-1.54.71-1.02,1.24-2.3,1.6-3.82s.63-3.16.79-4.91.31-3.36.44-4.81c.09-.77.3-1.26.61-1.47s.48-.35.48-.44v-.61c0-.5-.04-1.09-.14-1.77v-.03Z"/>
      <path class="cls-8" d="m502.95,64.75c-.55,1.37-.96,2.43-1.23,3.21-.04.23-.17.71-.38,1.43s-.43,1.54-.68,2.42c-.25.89-.47,1.76-.65,2.63-.18.86-.27,1.57-.27,2.12,0,.23-.2.43-.61.61-.41.18-.93.27-1.57.27-1,0-1.8-.14-2.39-.41s-1.04-.72-1.33-1.33-.48-1.42-.55-2.42-.1-2.21-.1-3.62v-5.12c0-.36-.01-.73-.03-1.09s-.1-.59-.24-.68c-.23.09-.51.68-.85,1.77-.34,1.09-.66,2.42-.96,3.99s-.56,3.22-.78,4.95-.34,3.28-.34,4.64c0,.5-.26.8-.79.89-.52.09-1.1.14-1.74.14-.18,0-.49-.03-.92-.1-.43-.07-.87-.15-1.3-.24s-.83-.22-1.19-.38c-.36-.16-.59-.35-.68-.58-.23-.59-.4-1.57-.51-2.93-.11-1.37-.17-3.48-.17-6.35,0-1.68.03-3.64.1-5.87s.15-4.85.24-7.85c0-.41-.02-.94-.07-1.6-.04-.66-.07-1.04-.07-1.13,0-.36.15-.58.44-.65s.51-.1.65-.1c.32,0,.69.03,1.13.1s.86.15,1.3.24c.43.09.83.19,1.19.31s.61.22.75.31v16.45c.23-.91.49-1.97.79-3.17.29-1.21.64-2.4,1.02-3.58s.81-2.27,1.26-3.28c.46-1,.93-1.73,1.43-2.18.18-.14.52-.24,1.02-.31s.91-.1,1.23-.1c.23,0,.51.03.85.1s.67.17.99.31c.32.14.6.31.85.51.25.2.4.44.44.72v11.67c0,.27.04.41.14.41s.35-.61.78-1.84c.43-1.23.94-2.68,1.54-4.37s1.23-3.41,1.91-5.19c.68-1.77,1.3-3.19,1.84-4.23.09-.18.4-.28.92-.31.52-.02.99-.03,1.4-.03.32,0,.75.1,1.3.31s1.08.49,1.6.85c.52.36.98.77,1.36,1.23.39.46.58.93.58,1.43,0,.09-.14.35-.41.78s-.46.88-.55,1.33c-.32,1.27-.54,2.53-.65,3.75s-.17,2.8-.17,4.71c0,.82.03,1.64.1,2.46s.18,1.56.34,2.22.38,1.19.65,1.6c.27.41.64.61,1.09.61.64,0,1.21-.22,1.71-.65s.93-1.01,1.3-1.74.68-1.58.96-2.56c.27-.98.5-1.99.68-3.04.23-1.09.64-1.64,1.23-1.64.36,0,.6.09.72.27.11.18.17.59.17,1.23,0,.36-.02.61-.07.75-.05.59-.24,1.51-.58,2.76s-.82,2.5-1.43,3.75-1.38,2.34-2.29,3.28-1.96,1.4-3.14,1.4c-1.41,0-2.57-.33-3.48-.99-.91-.66-1.62-1.55-2.12-2.66s-.85-2.4-1.06-3.86-.31-2.98-.31-4.57v-.48l.41-5.6c-.64,1.23-1.23,2.53-1.78,3.89l.03.02Z"/>
    </g>
    <g>
      <path class="cls-19" d="m758.91,1234.55h-26.04c-7.72,0-14.01,6.28-14.01,14.01v.84c0,.53.43.97.97.97s.97-.43.97-.97v-.84c0-6.66,5.42-12.07,12.07-12.07h26.04c6.66,0,12.07,5.41,12.07,12.07v.84c0,.53.43.97.97.97s.97-.43.97-.97v-.84c0-7.72-6.28-14.01-14.01-14.01h0Z"/>
      <path class="cls-19" d="m731.53,1217.83c0,7.92,6.44,14.36,14.36,14.36s14.36-6.44,14.36-14.36-6.44-14.36-14.36-14.36-14.36,6.44-14.36,14.36Zm26.78,0c0,6.85-5.57,12.42-12.42,12.42s-12.42-5.57-12.42-12.42,5.57-12.42,12.42-12.42,12.42,5.57,12.42,12.42Z"/>
    </g>
    <path class="cls-19" d="m587.34,1205.76c-3.69.66-6.73,2.6-9.05,5.78-.12-.17-.24-.33-.37-.5-3.68-4.72-9.83-6.68-15.3-4.87-4.93,1.63-8.17,5.05-9.65,10.18-1.27,4.42-.78,8.42,1.44,11.91,1.36,2.13,3.13,4.07,4.68,5.68,3.9,4.06,8.12,7.64,13.27,11.76,1.19.95,2.39,1.89,3.6,2.83.56.44,1.13.88,1.69,1.32.18.14.4.21.62.21s.43-.07.62-.21c.47-.37.94-.73,1.4-1.09.99-.77,1.96-1.51,2.91-2.27,4.82-3.85,10.37-8.39,15.26-13.56,1.67-1.77,3.26-3.54,4.34-5.75,2.78-5.72,1.46-13.11-3.14-17.56-3.52-3.4-7.67-4.7-12.33-3.87h.01Zm13.67,20.55c-.95,1.96-2.43,3.6-3.99,5.25-4.79,5.08-10.28,9.56-15.05,13.37-.95.76-1.91,1.5-2.89,2.25-.26.2-.53.41-.79.61-.36-.28-.72-.56-1.08-.84-1.21-.94-2.4-1.87-3.58-2.82-5.09-4.07-9.26-7.6-13.08-11.58-1.48-1.54-3.17-3.39-4.43-5.37-1.9-2.97-2.31-6.43-1.2-10.27,1.28-4.45,4.09-7.42,8.35-8.83,1.15-.38,2.34-.56,3.52-.56,3.61,0,7.19,1.71,9.57,4.77.24.31.48.66.73,1.02.13.19.26.38.41.58.19.27.49.42.83.42s.64-.17.82-.44l.48-.72c2.06-3.05,4.71-4.82,8.08-5.42,4-.71,7.56.41,10.59,3.34,3.93,3.8,5.11,10.35,2.73,15.24h-.02Z"/>
    <path class="cls-9" d="m100.04,1251.15v-30.86l-23.1-15.86-23.1,15.86v30.86h15.75v-14.77c0-3.45,3.29-6.25,7.36-6.25s7.36,2.8,7.36,6.25v14.77h15.75-.02Z"/>
    <path class="cls-19" d="m238.55,1244.11c5.39,0,10.31-2.06,14.02-5.44.04.07.09.13.14.19l13.97,13.97c.2.2.45.29.71.29s.51-.1.71-.29c.39-.39.39-1.03,0-1.42l-13.97-13.97c-.06-.06-.12-.1-.19-.14,3.38-3.7,5.44-8.62,5.44-14.02,0-11.48-9.34-20.83-20.83-20.83s-20.83,9.34-20.83,20.83,9.34,20.83,20.83,20.83h0Zm0-39.65c10.38,0,18.82,8.44,18.82,18.82s-8.44,18.82-18.82,18.82-18.82-8.44-18.82-18.82,8.44-18.82,18.82-18.82Z"/>
    <g>
      <path class="cls-19" d="m422.96,1202.45h-24.59c-7.19,0-13.04,5.85-13.04,13.04v24.59c0,7.19,5.85,13.04,13.04,13.04h24.59c7.19,0,13.04-5.85,13.04-13.04v-24.59c0-7.19-5.85-13.04-13.04-13.04Zm11.03,37.63c0,6.08-4.95,11.03-11.03,11.03h-24.59c-6.08,0-11.03-4.95-11.03-11.03v-24.59c0-6.08,4.95-11.03,11.03-11.03h24.59c6.08,0,11.03,4.95,11.03,11.03v24.59Z"/>
      <path class="cls-19" d="m424.79,1226.79h-13.11v-13.11c0-.55-.45-1-1-1s-1,.45-1,1v13.11h-13.11c-.55,0-1,.45-1,1s.45,1,1,1h13.11v13.11c0,.55.45,1,1,1s1-.45,1-1v-13.11h13.11c.55,0,1-.45,1-1s-.45-1-1-1Z"/>
    </g>
    <path class="cls-18" d="m740.64,66.68l4.39,25.65c.07.43.41.77.83.85.07.01.13.02.2.02.36,0,.7-.18.89-.5l27.01-43.68c.2-.32.21-.73.02-1.06s-.54-.53-.92-.54l-51.35.31c-.44,0-.82.27-.98.68-.15.41-.03.87.29,1.15l19.62,17.1v.02Zm5.99,22.57l-3.86-22.56,27.27-15.31-23.41,37.87h0Zm22.39-39.7l-27.27,15.31-17.25-15.04,44.52-.27Z"/>
    <g>
      <path class="cls-22" d="m728.62,190.71c0,2.18,1.77,3.94,3.94,3.94s3.94-1.77,3.94-3.94-1.77-3.94-3.94-3.94-3.94,1.77-3.94,3.94Z"/>
      <path class="cls-22" d="m748.34,190.71c0,2.18,1.77,3.94,3.94,3.94s3.94-1.77,3.94-3.94-1.77-3.94-3.94-3.94-3.94,1.77-3.94,3.94Z"/>
      <path class="cls-22" d="m768.05,190.71c0,2.18,1.77,3.94,3.94,3.94s3.94-1.77,3.94-3.94-1.77-3.94-3.94-3.94-3.94,1.77-3.94,3.94Z"/>
    </g>
    <g>
      <path class="cls-20" d="m390.82,900.26c0,2.18,1.77,3.94,3.94,3.94s3.94-1.77,3.94-3.94-1.77-3.94-3.94-3.94-3.94,1.77-3.94,3.94Z"/>
      <path class="cls-1" d="m410.54,900.26c0,2.18,1.77,3.94,3.94,3.94s3.94-1.77,3.94-3.94-1.77-3.94-3.94-3.94-3.94,1.77-3.94,3.94Z"/>
      <path class="cls-1" d="m430.24,900.26c0,2.18,1.77,3.94,3.94,3.94s3.94-1.77,3.94-3.94-1.77-3.94-3.94-3.94-3.94,1.77-3.94,3.94Z"/>
    </g>
    <path class="cls-21" d="m743.52,920.9c.36.14.77.08,1.06-.15l15.17-11.84,15.17,11.84c.19.14.42.22.66.22.14,0,.27-.02.4-.07.36-.14.59-.44.59-.78v-39.71c0-.47-.44-.85-.99-.85h-31.66c-.55,0-.99.38-.99.85v39.71c0,.34.23.64.59.78h0Zm1.39-39.63h29.69v36.93l-14.18-11.07c-.19-.15-.43-.22-.66-.22s-.48.07-.66.22l-14.18,11.07v-36.93h-.01Z"/>
    <g>
      <path class="cls-23" d="m53.87,55.08v25.96c0,3.96,3.22,7.18,7.18,7.18h38.63c3.96,0,7.18-3.22,7.18-7.18v-25.96c0-3.77-3.06-6.83-6.83-6.83l-6.37-.08-.23-1c-.93-4-4.44-6.78-8.55-6.78h-8.51c-4.09,0-7.61,2.79-8.55,6.78l-.23,1-6.9.08c-3.77,0-6.83,3.07-6.83,6.83h.01Zm14.91-3.97c.68,0,1.27-.47,1.43-1.14l.49-2.14c.63-2.65,2.95-4.5,5.68-4.5h8.51c2.73,0,5.06,1.85,5.68,4.5l.49,2.14c.16.66.74,1.14,1.43,1.14l7.53.08c2.15,0,3.89,1.74,3.89,3.89v25.96c0,2.34-1.9,4.24-4.24,4.24h-38.62c-2.34,0-4.24-1.9-4.24-4.24v-25.96c0-2.15,1.74-3.89,3.89-3.89l8.08-.08Z"/>
      <path class="cls-23" d="m80.64,80.58c6.81,0,12.35-5.55,12.35-12.35s-5.54-12.35-12.35-12.35-12.35,5.53-12.35,12.35,5.54,12.35,12.35,12.35Zm0-21.76c5.19,0,9.41,4.22,9.41,9.41s-4.23,9.41-9.41,9.41-9.41-4.23-9.41-9.41,4.22-9.41,9.41-9.41Z"/>
    </g>
    <g>
      <path class="cls-10" d="m145.43,889.34c8.22,0,14.9,6.69,14.9,14.9,0,2.77-.78,5.48-2.25,7.85l-.4.65.25.72,1.08,3.07-3.39-.66-.69-.14-.57.42c-2.61,1.96-5.69,2.99-8.93,2.99-8.22,0-14.9-6.69-14.9-14.9s6.69-14.9,14.9-14.9m0-1.59c-9.11,0-16.49,7.38-16.49,16.49s7.38,16.49,16.49,16.49c3.71,0,7.13-1.24,9.88-3.31l6.11,1.2-1.99-5.69c1.57-2.53,2.49-5.5,2.49-8.69,0-9.11-7.38-16.49-16.49-16.49h0Z"/>
      <path class="cls-2" d="m193.79,901.62l3.16,18.49c.05.31.29.55.6.61.05,0,.1.01.14.01.26,0,.5-.13.64-.36l19.46-31.48c.14-.23.15-.53.02-.77-.13-.24-.39-.39-.66-.39l-37,.22c-.31,0-.59.2-.7.49s-.03.63.21.83l14.14,12.33v.02Zm4.31,16.26l-2.78-16.26,19.65-11.03-16.87,27.29h0Zm16.13-28.61l-19.65,11.03-12.43-10.84,32.08-.19Z"/>
      <path class="cls-7" d="m103.5,890.77c-2.58-2.49-5.61-3.44-9.03-2.83-2.71.48-4.93,1.91-6.62,4.24-.09-.12-.18-.24-.27-.36-2.7-3.46-7.2-4.89-11.2-3.57-3.61,1.19-5.99,3.7-7.06,7.45-.93,3.24-.57,6.17,1.06,8.72,1,1.56,2.29,2.98,3.43,4.16,2.85,2.98,5.95,5.6,9.72,8.61.87.7,1.75,1.38,2.64,2.07.41.32.82.64,1.24.97.13.1.29.16.45.16s.32-.05.45-.15c.35-.27.69-.53,1.03-.8.73-.56,1.44-1.11,2.13-1.67,3.53-2.82,7.6-6.14,11.17-9.93,1.22-1.3,2.39-2.59,3.18-4.21,2.04-4.19,1.07-9.6-2.3-12.86h-.02Z"/>
    </g>
    <path class="cls-24" d="m92.17,237.6c-23.98,0-43.48-19.51-43.48-43.48s19.51-43.48,43.48-43.48,43.48,19.51,43.48,43.48-19.51,43.48-43.48,43.48Zm0-84.58c-22.66,0-41.1,18.44-41.1,41.1s18.44,41.1,41.1,41.1,41.1-18.44,41.1-41.1-18.44-41.1-41.1-41.1Z"/>
    <g class="cls-11">
      <text class="cls-15" transform="translate(52.16 1102.08)"><tspan x="0" y="0">min_jae님 외 여러 명이 좋아합니다</tspan></text>
    </g>
    <g class="cls-11">
      <text class="cls-17" transform="translate(52.16 994.09)"><tspan x="0" y="0" xml:space="preserve">#열정    #IS</tspan></text>
      <text class="cls-13" transform="translate(184.04 994.09)"><tspan x="0" y="0">F</tspan></text>
      <text class="cls-12" transform="translate(194.54 994.09)"><tspan x="0" y="0" xml:space="preserve">J    #평화주의자    #배우는거 좋아함</tspan></text>
      <text class="cls-17" transform="translate(52.16 1042.09)"><tspan x="0" y="0" xml:space="preserve">#섬세함    #성실함    #꼼꼼함      </tspan></text>
    </g>
    <g class="cls-11">
      <text class="cls-16" transform="translate(150.49 199.54)"><tspan x="0" y="0">min_jae</tspan></text>
    </g>
    <g class="cls-11">
      <text class="cls-14" transform="translate(52.16 1151.93)"><tspan x="0" y="0">댓글 달기...</tspan></text>
    </g>
    <image class="cls-11" width="842" height="980" transform="translate(172.05 250.12) scale(.58)" xlink:href="../../13515151515.png"/>
  </g>
</svg>