<?xml version="1.0" encoding="UTF-8"?>
<svg id="Layer_2" data-name="Layer 2" xmlns="http://www.w3.org/2000/svg" viewBox="0 0 681.31 63.52">
  <defs>
    <style>
      .cls-1 {
        fill: #231f20;
      }
    </style>
  </defs>
  <g id="Layer_1-2" data-name="Layer 1">
    <g>
      <path class="cls-1" d="m61.6,4.73h-2.66l-5.27,2.62-28.09,56.17h-1.02v-6.25l5.59-44.8v-5.59L3.16,63.52h-1.02v-6.25L7.73,9.84l-2.07-4.1-2.97-1.02H0v-1.29h22.38v1.29h-2.7l-3.28,1.09-2.03,2.97-4.77,38.24L30.16,3.44h6.88v3.44l-5.12,41.21L52.3,7.19l-4.88-2.46h-2.62v-1.29h16.8v1.29Z"/>
      <path class="cls-1" d="m104.06,63.52h-19.57v-1.29h2.62l3.44-1.68,1.37-2.77-.62-11.05h-20.43l-7.89,13.12,4.88,2.38h2.62v1.29h-16.76v-1.29h2.66l5.23-2.62L95.31,3.44h.98l2.58,53.67c.13.21.43.74.9,1.58.47.85,1.11,2.03,1.91,3.54h2.38v1.29Zm-12.85-18.09l-1.8-29.77-17.81,29.77h19.61Z"/>
      <path class="cls-1" d="m185.74,4.73h-2.62l-5.2,2.62-16.91,56.17h-.98l-18.2-54.88-1.21-1.21-15.66,52.34,4.96,2.46h2.62v1.29h-16.8v-1.29h2.66l5.2-2.62,16.02-53.2-.43-.43-3.91-1.25h-2.73v-1.29h14.49l16.17,48.48,13.36-44.73-4.96-2.46h-2.66v-1.29h16.8v1.29Z"/>
      <path class="cls-1" d="m243.63,0l-3.52,20.94-1.29-.08v-5.43l-2.73-5.35-2.62-2.66-5.39-2.7h-8.05l-5.39,2.62-5.43,8.24-2.81,5.55-2.7,8.32-2.81,11.76v13.09l2.66,5.31,5.27,2.62h5.27l5.35-2.62,5.47-8.24,1.25-3.95-.7-1.99-2.97-1.52h-2.62v-1.29h22.38v1.29h-2.73l-3.91,1.29-3.98,4.06-2.81,5.62-5.86,5.74-8.63,2.89h-5.82l-.08-.08-8.48-2.81-3.05-3.05-2.89-8.63v-8.55l2.81-11.29,2.85-8.55,5.7-8.48,5.74-5.74,8.55-2.89h8.75l5.82,2.89,2.66,2.7h2.15l4.57-9.02Z"/>
      <path class="cls-1" d="m363.82,4.73h-2.7l-3.95,1.25-2.3,2.34-14.57,50.94,1.05,1.95,2.97,1.02h2.7v1.29h-22.38v-1.29h2.73l3.91-1.29,2.3-2.3,14.34-50.23-34.14,55.12h-.98l-3.05-54.26-15.12,50.51,4.96,2.46h2.62v1.29h-16.8v-1.29h2.66l5.2-2.62,15.59-52.03-.55-1.17-3.44-1.68h-2.66v-1.29h14.65l2.73,48.95,29.92-48.95h14.3v1.29Z"/>
      <path class="cls-1" d="m403.55,4.73h-2.73l-3.75,1.09-2.46,2.5-14.57,50.94.94,1.88,3.05,1.09h2.73v1.29h-22.42v-1.29h2.73l3.75-1.09,2.5-2.5,14.53-50.98-.94-1.84-3.05-1.09h-2.73v-1.29h22.42v1.29Z"/>
      <path class="cls-1" d="m474.01,4.73h-2.62l-5.2,2.62-16.91,56.17h-.98l-18.2-54.88-1.21-1.21-15.66,52.34,4.96,2.46h2.62v1.29h-16.8v-1.29h2.66l5.2-2.62,16.02-53.2-.43-.43-3.91-1.25h-2.73v-1.29h14.49l16.17,48.48,13.36-44.73-4.96-2.46h-2.66v-1.29h16.8v1.29Z"/>
      <path class="cls-1" d="m564.79,4.73h-2.7l-3.79,1.09-2.54,2.66-9.92,32.23-5.66,14.1-5.78,5.82-5.74,2.89h-6.02l-5.94-2.97-2.93-5.9v-6.02l3.2-3.2h3.28l3.16,3.2v3.28l-3.16,3.2h-3.05l-2.19-3.12v2.3l2.66,5.31,5.27,2.62h5.2l5.27-5.35,2.81-5.43,12.81-43.79-.9-1.84-3.05-1.09h-2.7v-1.29h22.38v1.29Z"/>
      <path class="cls-1" d="m610.1,63.52h-19.57v-1.29h2.62l3.44-1.68,1.37-2.77-.62-11.05h-20.43l-7.89,13.12,4.88,2.38h2.62v1.29h-16.76v-1.29h2.66l5.23-2.62,33.71-56.17h.98l2.58,53.67c.13.21.43.74.9,1.58.47.85,1.11,2.03,1.91,3.54h2.38v1.29Zm-12.85-18.09l-1.8-29.77-17.81,29.77h19.61Z"/>
      <path class="cls-1" d="m681.31,3.44l-2.89,17.5-1.25-.08v-5.51l-1.88-7.19-2.07-2.19-3.91-1.25h-11.05l-3.75,1.09-2.46,2.5-6.56,23.12h7.03l3.91-1.29,4.02-4.06,5.35-10.74-8.24,33.12v-10.62l-1.68-3.44-3.44-1.68h-7.38l-7.58,26.52.94,1.88,3.05,1.09h11.05l4.3-1.02,6.56-4.41,1.29-1.29,4.18-6.95,1.09.55-5.74,14.41h-42.42v-1.29h2.73l3.75-1.09,2.5-2.5,14.53-50.98-.94-1.84-3.05-1.09h-2.73v-1.29h42.73Z"/>
    </g>
  </g>
</svg>