<?xml version="1.0" encoding="UTF-8"?>
<svg id="Layer_2" data-name="Layer 2" xmlns="http://www.w3.org/2000/svg" viewBox="0 0 2032.36 180.53">
  <g id="Layer_1-2" data-name="Layer 1">
    <g>
      <path d="M137.23,30.12c1.16-.17,2.5-.84,4.02-2.01,1.63-1.28,2.71-2.42,3.23-3.41,.52-.99,.32-2.12-.61-3.4-3.26-4.77-7.16-8.73-11.7-11.87s-9.69-5.5-15.45-7.07-12.25-2.36-19.47-2.36c-10.59,0-20.37,1.69-29.33,5.06-8.96,3.38-17.02,8.06-24.18,14.05-7.16,6-13.47,12.81-18.94,20.43-5.47,7.62-10.07,15.77-13.79,24.44-3.73,8.67-6.49,17.37-8.29,26.1-1.81,8.73-2.71,17.11-2.71,25.14,0,10.24,1.25,19.41,3.75,27.5,2.5,8.09,6.2,14.96,11.09,20.6,4.89,5.65,10.79,9.92,17.72,12.83,6.92,2.91,14.81,4.37,23.66,4.37,6.17,0,12.77-1.22,19.82-3.67,7.04-2.44,14.32-6.52,21.82-12.22,7.51-5.7,14.99-13.44,22.44-23.22,1.16-1.75,1.66-3.17,1.48-4.28-.17-1.1-1.02-2.41-2.53-3.93-1.4-1.28-2.77-2.18-4.1-2.71-1.34-.52-2.65-.09-3.93,1.31-4.19,5.01-8.38,9.58-12.57,13.71-4.19,4.13-8.44,7.68-12.75,10.65-4.31,2.97-8.73,5.3-13.27,6.98-4.54,1.69-9.31,2.53-14.32,2.53-7.1,0-13.3-1.1-18.59-3.32-5.3-2.21-9.66-5.5-13.09-9.87-3.43-4.36-6.02-9.83-7.77-16.41-1.75-6.57-2.62-14.23-2.62-22.96,0-7.22,.87-14.64,2.62-22.26,1.75-7.62,4.22-15.1,7.42-22.44,3.2-7.33,7.13-14.23,11.79-20.69,4.65-6.46,9.89-12.16,15.71-17.11,5.82-4.95,12.19-8.82,19.12-11.61,6.92-2.79,14.29-4.19,22.09-4.19,6.29,0,11.73,.5,16.33,1.48,4.6,.99,8.64,2.5,12.13,4.54,3.49,2.04,6.75,4.57,9.78,7.59,1.51,1.28,2.85,1.83,4.02,1.66Z"/>
      <path d="M204.02,90.88c-5.06-2.85-11.2-4.28-18.42-4.28-8.5,0-15.92,1.83-22.26,5.5-6.35,3.67-11.67,8.44-15.98,14.32-4.31,5.88-7.57,12.22-9.78,19.03-2.21,6.81-3.32,13.36-3.32,19.64,0,6.87,1.31,13.01,3.93,18.42,2.62,5.41,6.49,9.6,11.61,12.57,5.12,2.97,11.35,4.45,18.68,4.45,6.87,0,13.03-1.28,18.51-3.84,5.47-2.56,10.24-5.96,14.32-10.21,4.07-4.25,7.45-8.99,10.13-14.23,2.68-5.24,4.68-10.59,6.02-16.06,1.34-5.47,2.01-10.59,2.01-15.37,0-6.75-1.31-12.72-3.93-17.9-2.62-5.18-6.46-9.19-11.52-12.05Zm-2.53,45.92c-1.51,5.06-3.7,9.87-6.55,14.41-2.85,4.54-6.35,8.24-10.48,11.09-4.13,2.85-8.93,4.28-14.4,4.28-4.08,0-7.62-.87-10.65-2.62-3.03-1.75-5.36-4.33-6.98-7.77-1.63-3.43-2.44-7.48-2.44-12.13s.76-9.14,2.27-14.14c1.51-5,3.69-9.75,6.55-14.23,2.85-4.48,6.43-8.12,10.74-10.91,4.31-2.79,9.25-4.19,14.84-4.19,3.96,0,7.36,.85,10.21,2.53,2.85,1.69,5.09,4.16,6.72,7.42,1.63,3.26,2.44,7.22,2.44,11.87s-.76,9.34-2.27,14.4Z"/>
      <path d="M386.03,156.09c-1.28-.93-2.39-1.28-3.32-1.05-.93,.23-1.86,.93-2.79,2.09-1.51,1.98-2.94,3.67-4.28,5.06-1.34,1.4-2.62,2.47-3.84,3.23-1.22,.76-2.42,1.13-3.58,1.13-.58,0-1.11-.17-1.57-.52-.47-.35-.7-1.05-.7-2.1s.29-2.68,.87-4.89l11.7-38.76c2.1-6.63,3.03-12.48,2.79-17.55-.23-5.06-1.78-9.02-4.63-11.87-2.85-2.85-7.25-4.28-13.18-4.28s-11.67,1.86-17.55,5.59c-5.88,3.73-11.61,9.2-17.2,16.41-2.67,3.45-5.27,7.29-7.8,11.49,1.93-6.55,2.82-12.36,2.65-17.43-.17-5.12-1.69-9.08-4.54-11.87-2.85-2.79-7.25-4.19-13.18-4.19-3.61,0-7.25,.73-10.91,2.18-3.67,1.46-7.28,3.58-10.83,6.37-3.55,2.79-7.04,6.32-10.48,10.56-3.43,4.25-6.78,9.11-10.04,14.58l7.51-26.36c.7-2.33,.52-4.02-.52-5.06-1.05-1.05-3.32-1.57-6.81-1.57-2.21,0-3.87,.35-4.98,1.05-1.11,.7-2.01,2.16-2.71,4.36l-23.4,81.54c-.7,2.09-.26,3.55,1.31,4.36,1.57,.81,3.34,1.22,5.33,1.22,2.68,0,4.63-.38,5.85-1.13,1.22-.76,2.01-1.89,2.36-3.41l1.92-7.33c3.84-9.66,7.94-18.59,12.31-26.8,4.37-8.21,8.82-15.36,13.36-21.48,4.54-6.11,8.99-10.83,13.36-14.14,4.37-3.32,8.41-4.98,12.13-4.98,3.26,0,5.44,.73,6.55,2.18,1.1,1.46,1.54,3.4,1.31,5.85-.23,2.44-.82,5.18-1.75,8.21l-16.59,57.44c-.7,2.09-.26,3.55,1.31,4.36,1.57,.81,3.34,1.22,5.33,1.22,2.68,0,4.6-.38,5.76-1.13,1.16-.76,1.98-1.89,2.44-3.41l1.21-4.19h.01c3.84-10.13,7.94-19.47,12.31-28.02,4.36-8.56,8.87-16.03,13.53-22.44,4.65-6.4,9.22-11.35,13.71-14.84,4.48-3.49,8.64-5.24,12.48-5.24,3.26,0,5.44,.73,6.55,2.18,1.1,1.46,1.54,3.4,1.31,5.85-.23,2.44-.82,5.18-1.75,8.21l-10.3,35.62c-.82,2.91-1.48,5.94-2.01,9.08-.52,3.14-.55,6.08-.09,8.82,.46,2.74,1.69,5.01,3.67,6.81,1.98,1.8,5.06,2.71,9.25,2.71s7.74-.99,11-2.97c3.26-1.98,6.02-4.3,8.29-6.98,2.27-2.68,3.93-5,4.98-6.98,.58-1.16,.7-2.3,.35-3.4-.35-1.1-1.51-2.24-3.49-3.4Z"/>
      <path d="M554.35,156.09c-1.28-.93-2.39-1.28-3.32-1.05-.93,.23-1.86,.93-2.79,2.09-1.51,1.98-2.94,3.67-4.28,5.06-1.34,1.4-2.62,2.47-3.84,3.23-1.22,.76-2.42,1.13-3.58,1.13-.58,0-1.11-.17-1.57-.52-.47-.35-.7-1.05-.7-2.1s.29-2.68,.87-4.89l11.7-38.76c2.1-6.63,3.03-12.48,2.79-17.55-.23-5.06-1.78-9.02-4.63-11.87-2.85-2.85-7.25-4.28-13.18-4.28s-11.67,1.86-17.55,5.59c-5.88,3.73-11.61,9.2-17.2,16.41-2.67,3.45-5.27,7.29-7.8,11.49,1.93-6.55,2.82-12.36,2.65-17.43-.17-5.12-1.69-9.08-4.54-11.87-2.85-2.79-7.25-4.19-13.18-4.19-3.61,0-7.25,.73-10.91,2.18-3.67,1.46-7.28,3.58-10.83,6.37-3.55,2.79-7.04,6.32-10.48,10.56-3.43,4.25-6.78,9.11-10.04,14.58l7.51-26.36c.7-2.33,.52-4.02-.52-5.06-1.05-1.05-3.32-1.57-6.81-1.57-2.21,0-3.87,.35-4.98,1.05-1.11,.7-2.01,2.16-2.71,4.36l-23.4,81.54c-.7,2.09-.26,3.55,1.31,4.36,1.57,.81,3.34,1.22,5.33,1.22,2.68,0,4.63-.38,5.85-1.13,1.22-.76,2.01-1.89,2.36-3.41l1.92-7.33c3.84-9.66,7.94-18.59,12.31-26.8,4.37-8.21,8.82-15.36,13.36-21.48,4.54-6.11,8.99-10.83,13.36-14.14,4.37-3.32,8.41-4.98,12.13-4.98,3.26,0,5.44,.73,6.55,2.18,1.1,1.46,1.54,3.4,1.31,5.85-.23,2.44-.82,5.18-1.75,8.21l-16.59,57.44c-.7,2.09-.26,3.55,1.31,4.36,1.57,.81,3.34,1.22,5.33,1.22,2.68,0,4.6-.38,5.76-1.13,1.16-.76,1.98-1.89,2.44-3.41l1.21-4.19h.01c3.84-10.13,7.94-19.47,12.31-28.02,4.36-8.56,8.87-16.03,13.53-22.44,4.65-6.4,9.22-11.35,13.71-14.84,4.48-3.49,8.64-5.24,12.48-5.24,3.26,0,5.44,.73,6.55,2.18,1.1,1.46,1.54,3.4,1.31,5.85-.23,2.44-.82,5.18-1.75,8.21l-10.3,35.62c-.82,2.91-1.48,5.94-2.01,9.08-.52,3.14-.55,6.08-.09,8.82,.46,2.74,1.69,5.01,3.67,6.81,1.98,1.8,5.06,2.71,9.25,2.71s7.74-.99,11-2.97c3.26-1.98,6.02-4.3,8.29-6.98,2.27-2.68,3.93-5,4.98-6.98,.58-1.16,.7-2.3,.35-3.4-.35-1.1-1.51-2.24-3.49-3.4Z"/>
      <path d="M667.83,156.44c-1.51-.93-2.88-1.37-4.1-1.31-1.22,.06-2.36,.73-3.4,2.01-1.4,2.1-2.71,3.81-3.93,5.15-1.22,1.34-2.42,2.39-3.58,3.14-1.16,.76-2.27,1.13-3.32,1.13-.7,0-1.28-.17-1.75-.52-.47-.35-.67-1.05-.61-2.1,.06-1.05,.38-2.62,.96-4.71l19.03-65.3c.81-2.33,.7-4.02-.35-5.06-1.05-1.05-3.32-1.57-6.81-1.57-2.21,0-3.9,.35-5.06,1.05-1.16,.7-2.1,2.16-2.79,4.36l-.7,3.84c-3.84,10.13-8.06,19.41-12.66,27.85-4.6,8.44-9.28,15.74-14.06,21.91-4.77,6.17-9.49,10.97-14.14,14.4-4.66,3.44-9.02,5.15-13.1,5.15-3.14,0-5.3-.73-6.46-2.18-1.17-1.45-1.66-3.46-1.48-6.02,.17-2.56,.73-5.3,1.66-8.21l16.59-55.52c.7-2.33,.52-4.02-.52-5.06-1.05-1.05-3.32-1.57-6.81-1.57-2.21,0-3.87,.35-4.98,1.05-1.11,.7-2.01,2.16-2.71,4.36l-15.54,53.25c-2.21,7.45-3.09,13.71-2.62,18.77,.46,5.06,2.21,8.85,5.24,11.35,3.03,2.5,7.16,3.75,12.4,3.75,3.72,0,7.51-.73,11.35-2.18,3.84-1.45,7.65-3.64,11.44-6.55,3.78-2.91,7.51-6.46,11.17-10.65s7.13-9.08,10.39-14.67l-1.57,6.63c-.93,2.79-1.63,5.79-2.1,8.99-.47,3.2-.5,6.17-.09,8.9,.41,2.74,1.63,5.01,3.67,6.81,2.04,1.8,5.21,2.71,9.52,2.71,4.07,0,7.74-1.02,11-3.06,3.26-2.04,5.99-4.39,8.21-7.07,2.21-2.68,3.9-5.06,5.06-7.16,.81-1.05,.99-2.07,.52-3.06-.47-.99-1.46-2.01-2.97-3.06Z"/>
      <path d="M780.1,156.09c-1.28-.93-2.39-1.28-3.32-1.05-.93,.23-1.86,.93-2.79,2.09-1.51,1.98-2.97,3.67-4.37,5.06-1.4,1.4-2.68,2.47-3.84,3.23-1.17,.76-2.33,1.13-3.49,1.13-.58,0-1.11-.17-1.57-.52-.47-.35-.7-1.05-.7-2.1s.29-2.68,.87-4.89l11.7-38.76c2.33-7.57,3.2-13.82,2.62-18.77-.58-4.95-2.36-8.67-5.33-11.17-2.97-2.5-7.13-3.75-12.48-3.75-3.84,0-7.68,.73-11.52,2.18-3.84,1.46-7.68,3.67-11.52,6.63-3.84,2.97-7.59,6.61-11.26,10.91-3.67,4.31-7.19,9.31-10.56,15.02l8.03-27.41c.7-2.33,.52-4.02-.52-5.06-1.05-1.05-3.32-1.57-6.81-1.57-2.21,0-3.87,.35-4.98,1.05-1.11,.7-2.01,2.16-2.71,4.36l-23.4,81.54c-.7,2.09-.26,3.55,1.31,4.36,1.57,.81,3.34,1.22,5.33,1.22,2.68,0,4.63-.38,5.85-1.13,1.22-.76,2.01-1.89,2.36-3.41l1.57-6.63c3.96-9.89,8.21-19.03,12.75-27.41,4.54-8.38,9.19-15.6,13.97-21.65,4.77-6.05,9.46-10.74,14.06-14.06,4.6-3.32,8.87-4.98,12.83-4.98,3.14,0,5.3,.73,6.46,2.18,1.16,1.46,1.66,3.4,1.48,5.85-.17,2.44-.73,5.18-1.66,8.21l-10.48,35.62c-.82,2.79-1.48,5.79-2.01,8.99-.52,3.2-.55,6.17-.09,8.9,.46,2.74,1.72,5.01,3.75,6.81,2.04,1.8,5.15,2.71,9.34,2.71s7.74-.99,11-2.97c3.26-1.98,5.99-4.3,8.21-6.98,2.21-2.68,3.84-5,4.89-6.98,.7-1.16,.84-2.3,.44-3.4-.41-1.1-1.54-2.24-3.4-3.4Z"/>
      <path d="M833.52,156.09c-1.4-.93-2.56-1.28-3.49-1.05-.93,.23-1.81,.93-2.62,2.09-1.86,2.1-3.4,3.84-4.63,5.24-1.22,1.4-2.36,2.44-3.4,3.14-1.05,.7-2.04,1.05-2.97,1.05-1.51,0-2.42-.61-2.71-1.83-.29-1.22-.09-3.06,.61-5.5l19.03-65.3c.7-2.33,.52-4.02-.52-5.06-1.05-1.05-3.32-1.57-6.81-1.57-2.21,0-3.87,.35-4.98,1.05-1.11,.7-2.01,2.16-2.71,4.36l-16.59,57.97c-2.79,9.55-3.32,16.79-1.57,21.74,1.75,4.95,5.82,7.42,12.22,7.42,3.14,0,6.11-.58,8.9-1.75,2.79-1.16,5.44-3.03,7.94-5.59,2.5-2.56,4.92-5.76,7.25-9.6,.7-1.16,.81-2.33,.35-3.49-.47-1.16-1.57-2.27-3.32-3.32Z"/>
      <path d="M839.29,38.41c-4.19,0-7.28,1.34-9.25,4.02-1.98,2.68-2.97,5.65-2.97,8.9,0,2.91,.81,5.15,2.44,6.72,1.63,1.57,3.67,2.36,6.11,2.36,4.3,0,7.45-1.34,9.43-4.02,1.98-2.68,2.97-5.64,2.97-8.9,0-3.03-.82-5.29-2.44-6.81-1.63-1.51-3.73-2.27-6.29-2.27Z"/>
      <path d="M920.04,89.74c-4.71-2.1-10.21-3.14-16.5-3.14-8.62,0-16.18,1.83-22.7,5.5-6.52,3.67-11.96,8.53-16.33,14.58-4.37,6.05-7.62,12.63-9.78,19.73-2.16,7.1-3.23,14.03-3.23,20.78,0,6.17,1.11,11.82,3.32,16.94,2.21,5.12,5.7,9.14,10.48,12.05,4.77,2.91,10.82,4.37,18.16,4.37,4.42,0,8.9-.7,13.44-2.09,4.54-1.4,9.08-3.67,13.62-6.81,4.54-3.14,8.96-7.51,13.27-13.09,1.4-1.63,2.01-3.14,1.83-4.54s-.96-2.73-2.36-4.02c-1.17-1.28-2.65-2.12-4.45-2.53-1.81-.41-3.4,.2-4.8,1.83-2.68,2.91-5.47,5.7-8.38,8.38-2.91,2.68-6.05,4.83-9.43,6.46-3.38,1.63-7.1,2.44-11.17,2.44-4.08-.11-7.45-.99-10.13-2.62-2.68-1.63-4.66-3.99-5.94-7.07-1.28-3.08-1.92-6.66-1.92-10.74,0-4.89,.76-9.98,2.27-15.28,1.51-5.3,3.72-10.21,6.64-14.75,2.91-4.54,6.57-8.26,11-11.17,4.42-2.91,9.49-4.37,15.19-4.37,4.77,0,8.76,.67,11.96,2.01,3.2,1.34,5.91,3.29,8.12,5.85,1.63,1.63,3.2,2.36,4.71,2.18,1.51-.17,3.03-.84,4.54-2.01,1.4-1.4,2.33-2.79,2.79-4.19,.46-1.4-.12-3.14-1.75-5.24-3.61-4.19-7.77-7.33-12.48-9.43Z"/>
      <path d="M1032.21,156.09c-1.28-.93-2.39-1.28-3.32-1.05-.93,.23-1.86,.93-2.79,2.09-1.51,1.98-2.97,3.67-4.37,5.06-1.4,1.4-2.68,2.47-3.84,3.23-1.17,.76-2.33,1.13-3.49,1.13-.58,0-1.11-.17-1.57-.52-.47-.35-.7-1.05-.7-2.1s.29-2.62,.87-4.71l19.55-65.3c.7-2.33,.52-4.02-.52-5.06s-3.32-1.57-6.81-1.57c-1.98,0-3.55,.23-4.71,.7-1.17,.47-2.04,1.46-2.62,2.97l-.17,.7c-3.49-1.63-7.07-2.88-10.74-3.75-3.67-.87-7.19-1.31-10.56-1.31-7.22,0-13.74,1.4-19.55,4.19-5.82,2.79-11,6.55-15.54,11.26-4.54,4.71-8.38,9.95-11.52,15.71-3.14,5.76-5.5,11.67-7.07,17.72-1.57,6.05-2.36,11.81-2.36,17.29s.84,10.45,2.53,14.58c1.69,4.13,4.1,7.31,7.25,9.52,3.14,2.21,6.81,3.32,11,3.32,3.96,0,8.12-1.13,12.48-3.4s8.82-5.67,13.36-10.21,9.08-10.24,13.62-17.11c0,.58-.03,1.11-.09,1.57-.06,.47-.21,.93-.44,1.4-.82,2.79-1.48,5.79-2.01,8.99-.52,3.2-.55,6.17-.09,8.9,.46,2.74,1.75,5.01,3.84,6.81,2.09,1.8,5.18,2.71,9.25,2.71s7.88-.99,11.09-2.97c3.2-1.98,5.94-4.3,8.21-6.98,2.27-2.68,3.93-4.95,4.98-6.81,.58-1.28,.67-2.47,.26-3.58-.41-1.1-1.54-2.24-3.4-3.4Zm-36.75-15.45c-5.53,8.32-10.86,14.67-15.98,19.03-5.12,4.36-9.72,6.55-13.79,6.55-1.98,0-3.7-.64-5.15-1.92-1.46-1.28-2.53-3.14-3.23-5.59-.7-2.44-1.05-5.29-1.05-8.55,0-3.84,.55-8,1.66-12.48,1.11-4.48,2.73-8.93,4.89-13.36,2.15-4.42,4.77-8.44,7.86-12.05,3.08-3.61,6.63-6.49,10.65-8.64,4.02-2.15,8.41-3.23,13.18-3.23,2.68,0,5.67,.23,8.99,.7,3.32,.47,6.84,1.51,10.56,3.14l-1.75,5.94c-5.71,11.99-11.32,22.15-16.85,30.47Z"/>
      <path d="M1111.83,89.92h-22.17l9.95-33.52c.81-2.33,.7-4.02-.35-5.06-1.05-1.05-3.32-1.57-6.81-1.57-2.33,0-4.05,.35-5.15,1.05-1.11,.7-2.01,2.16-2.71,4.37l-10.13,34.75h-13.79c-1.4,0-2.65,.58-3.75,1.75-1.11,1.16-1.95,2.91-2.53,5.24-.58,2.33-.61,4.08-.09,5.24,.52,1.17,1.42,1.75,2.71,1.75h13.27l-13.62,48.01c-1.86,6.05-2.5,11.17-1.92,15.36,.58,4.19,2.24,7.33,4.98,9.43,2.73,2.09,6.37,3.14,10.91,3.14,5.24,0,9.89-1.13,13.97-3.41,4.07-2.27,7.54-4.98,10.39-8.12,2.85-3.14,4.98-5.99,6.37-8.56,.46-.93,.55-1.98,.26-3.14-.29-1.16-1.31-2.21-3.06-3.14-1.75-1.05-3.14-1.48-4.19-1.31s-2.09,.79-3.14,1.83c-3.14,4.42-6.26,7.62-9.34,9.6-3.09,1.98-5.79,2.97-8.12,2.97-2.1,0-3.46-.87-4.1-2.62-.64-1.75-.38-4.6,.79-8.56l15.19-51.51h22.7c1.28,0,2.5-.61,3.67-1.83,1.16-1.22,1.98-2.94,2.44-5.15,.58-2.44,.61-4.22,.09-5.33-.52-1.1-1.43-1.66-2.71-1.66Z"/>
      <path d="M1159.14,38.41c-4.19,0-7.28,1.34-9.25,4.02-1.98,2.68-2.97,5.65-2.97,8.9,0,2.91,.81,5.15,2.44,6.72,1.63,1.57,3.67,2.36,6.11,2.36,4.3,0,7.45-1.34,9.43-4.02,1.98-2.68,2.97-5.64,2.97-8.9,0-3.03-.82-5.29-2.44-6.81-1.63-1.51-3.73-2.27-6.29-2.27Z"/>
      <path d="M1153.38,156.09c-1.4-.93-2.56-1.28-3.49-1.05-.93,.23-1.81,.93-2.62,2.09-1.86,2.1-3.4,3.84-4.63,5.24-1.22,1.4-2.36,2.44-3.4,3.14-1.05,.7-2.04,1.05-2.97,1.05-1.51,0-2.42-.61-2.71-1.83-.29-1.22-.09-3.06,.61-5.5l19.03-65.3c.7-2.33,.52-4.02-.52-5.06-1.05-1.05-3.32-1.57-6.81-1.57-2.21,0-3.87,.35-4.98,1.05-1.11,.7-2.01,2.16-2.71,4.36l-16.59,57.97c-2.79,9.55-3.32,16.79-1.57,21.74,1.75,4.95,5.82,7.42,12.22,7.42,3.14,0,6.11-.58,8.9-1.75,2.79-1.16,5.44-3.03,7.94-5.59,2.5-2.56,4.92-5.76,7.25-9.6,.7-1.16,.81-2.33,.35-3.49-.47-1.16-1.57-2.27-3.32-3.32Z"/>
      <path d="M1252.2,98.65c-.23-1.28-.52-2.5-.87-3.67-.7-3.03-1.72-5.18-3.05-6.46-1.34-1.28-3.06-1.92-5.15-1.92-1.98,0-3.52,.35-4.63,1.05-1.11,.7-1.83,1.78-2.18,3.23-.35,1.46-.29,3.23,.17,5.33,.35,1.51,.64,3.06,.87,4.63,.23,1.57,.38,3.06,.44,4.45,.06,1.4,.09,2.68,.09,3.84,0,4.77-.79,9.81-2.36,15.1-1.57,5.3-3.64,10.45-6.2,15.45-2.56,5.01-5.56,9.52-8.99,13.53-3.43,4.02-6.98,7.25-10.65,9.69-3.67,2.44-7.36,3.67-11.09,3.67-3.14,0-5.44-.7-6.9-2.1-1.46-1.4-2.33-3.26-2.62-5.59-.29-2.33-.2-4.92,.26-7.77,.46-2.85,1.11-5.79,1.92-8.82l13.97-48.71c.7-2.09,.61-3.69-.26-4.8-.87-1.11-3.17-1.66-6.9-1.66-2.91,0-4.83,.5-5.76,1.48-.93,.99-1.63,2.3-2.1,3.93l-14.14,49.76c-1.28,4.66-2.04,9.23-2.27,13.71-.23,4.48,.32,8.59,1.66,12.31,1.34,3.73,3.61,6.69,6.81,8.9,3.2,2.21,7.54,3.32,13.01,3.32,6.4,0,12.48-1.54,18.25-4.63s11.03-7.22,15.8-12.4c4.77-5.18,8.93-11,12.48-17.46,3.55-6.46,6.26-13.09,8.12-19.9,1.86-6.81,2.79-13.36,2.79-19.64,0-1.4-.03-2.73-.09-4.02-.06-1.28-.2-2.56-.44-3.84Z"/>
      <path d="M1338.72,89.22c-3.67-1.75-8.29-2.62-13.88-2.62-8.62,0-16.27,1.83-22.96,5.5-6.69,3.67-12.31,8.5-16.85,14.49-4.54,6-8,12.57-10.39,19.73-2.39,7.16-3.58,14.17-3.58,21.04,0,6.17,1.08,11.79,3.23,16.85,2.15,5.06,5.5,9.05,10.04,11.96,4.54,2.91,10.36,4.37,17.46,4.37,4.3,0,8.67-.67,13.09-2.01,4.42-1.34,8.84-3.58,13.27-6.72,4.42-3.14,8.79-7.45,13.09-12.92,1.28-1.75,1.83-3.32,1.66-4.71-.17-1.4-.85-2.73-2.01-4.02-1.28-1.28-2.82-2.12-4.63-2.53-1.81-.41-3.41,.21-4.8,1.83-2.68,3.03-5.41,5.85-8.21,8.47s-5.76,4.71-8.9,6.29-6.7,2.36-10.65,2.36-7.19-.81-9.69-2.44c-2.5-1.63-4.37-4.02-5.59-7.16-1.18-3.02-1.78-6.48-1.83-10.37,3.72-.68,7.5-1.43,11.34-2.29,6.52-1.45,12.89-3.29,19.12-5.5,6.23-2.21,11.79-4.83,16.67-7.86,4.89-3.03,8.79-6.46,11.7-10.3,2.91-3.84,4.37-8.21,4.37-13.1,0-4.3-.93-8-2.79-11.09-1.86-3.08-4.63-5.5-8.29-7.25Zm-8.38,28.46c-2.39,2.56-5.59,4.83-9.6,6.81-4.02,1.98-8.41,3.67-13.18,5.06-4.77,1.4-9.55,2.59-14.32,3.58-1.76,.36-3.44,.7-5.09,1.03,.31-1.24,.67-2.48,1.08-3.73,1.75-5.35,4.16-10.3,7.25-14.84,3.08-4.54,6.9-8.21,11.44-11,4.54-2.79,9.54-4.19,15.01-4.19,3.26,0,5.91,.67,7.94,2.01,2.04,1.34,3.06,3.46,3.06,6.37,0,3.38-1.2,6.35-3.58,8.9Z"/>
      <path d="M1449.84,156.09c-1.28-.93-2.42-1.28-3.4-1.05-.99,.23-1.89,.93-2.71,2.09-1.75,2.1-3.23,3.84-4.45,5.24-1.22,1.4-2.33,2.44-3.32,3.14-.99,.7-2.01,1.05-3.06,1.05-1.51,0-2.42-.61-2.71-1.83-.29-1.22-.09-3.06,.61-5.5L1475.51,6.63c.7-2.33,.55-4.02-.44-5.06-.99-1.05-3.23-1.57-6.72-1.57-2.21,0-3.9,.35-5.06,1.05-1.17,.7-2.09,2.16-2.79,4.37l-42.25,145.27c-2.91,9.55-3.46,16.79-1.66,21.74,1.8,4.95,5.91,7.42,12.31,7.42,3.03,0,5.96-.58,8.82-1.75,2.85-1.16,5.53-3.03,8.03-5.59,2.5-2.56,4.92-5.76,7.25-9.6,.58-1.16,.67-2.33,.26-3.49-.41-1.16-1.54-2.27-3.41-3.32Z"/>
      <path d="M1535.13,89.22c-3.67-1.75-8.29-2.62-13.88-2.62-8.62,0-16.27,1.83-22.96,5.5-6.69,3.67-12.31,8.5-16.85,14.49-4.54,6-8,12.57-10.39,19.73-2.39,7.16-3.58,14.17-3.58,21.04,0,6.17,1.08,11.79,3.23,16.85,2.15,5.06,5.5,9.05,10.04,11.96,4.54,2.91,10.36,4.37,17.46,4.37,4.3,0,8.67-.67,13.09-2.01,4.42-1.34,8.84-3.58,13.27-6.72,4.42-3.14,8.79-7.45,13.09-12.92,1.28-1.75,1.83-3.32,1.66-4.71-.17-1.4-.85-2.73-2.01-4.02-1.28-1.28-2.82-2.12-4.63-2.53-1.81-.41-3.41,.21-4.8,1.83-2.68,3.03-5.41,5.85-8.21,8.47s-5.76,4.71-8.9,6.29-6.7,2.36-10.65,2.36-7.19-.81-9.69-2.44c-2.5-1.63-4.37-4.02-5.59-7.16-1.18-3.02-1.78-6.48-1.83-10.37,3.72-.68,7.5-1.43,11.34-2.29,6.52-1.45,12.89-3.29,19.12-5.5,6.23-2.21,11.79-4.83,16.67-7.86,4.89-3.03,8.79-6.46,11.7-10.3,2.91-3.84,4.37-8.21,4.37-13.1,0-4.3-.93-8-2.79-11.09-1.86-3.08-4.63-5.5-8.29-7.25Zm-8.38,28.46c-2.39,2.56-5.59,4.83-9.6,6.81-4.02,1.98-8.41,3.67-13.18,5.06-4.77,1.4-9.55,2.59-14.32,3.58-1.76,.36-3.44,.7-5.09,1.03,.31-1.24,.67-2.48,1.08-3.73,1.75-5.35,4.16-10.3,7.25-14.84,3.08-4.54,6.9-8.21,11.44-11,4.54-2.79,9.54-4.19,15.01-4.19,3.26,0,5.91,.67,7.94,2.01,2.04,1.34,3.06,3.46,3.06,6.37,0,3.38-1.2,6.35-3.58,8.9Z"/>
      <path d="M1648.88,156.09c-1.28-.93-2.39-1.28-3.32-1.05-.93,.23-1.86,.93-2.79,2.09-1.51,1.98-2.97,3.67-4.37,5.06-1.4,1.4-2.68,2.47-3.84,3.23-1.17,.76-2.33,1.13-3.49,1.13-.58,0-1.11-.17-1.57-.52-.47-.35-.7-1.05-.7-2.1s.29-2.62,.87-4.71l19.55-65.3c.7-2.33,.52-4.02-.52-5.06s-3.32-1.57-6.81-1.57c-1.98,0-3.55,.23-4.71,.7-1.17,.47-2.04,1.46-2.62,2.97l-.17,.7c-3.49-1.63-7.07-2.88-10.74-3.75-3.67-.87-7.19-1.31-10.56-1.31-7.22,0-13.74,1.4-19.55,4.19-5.82,2.79-11,6.55-15.54,11.26-4.54,4.71-8.38,9.95-11.52,15.71-3.14,5.76-5.5,11.67-7.07,17.72-1.57,6.05-2.36,11.81-2.36,17.29s.84,10.45,2.53,14.58c1.69,4.13,4.1,7.31,7.25,9.52,3.14,2.21,6.81,3.32,11,3.32,3.96,0,8.12-1.13,12.48-3.4s8.82-5.67,13.36-10.21,9.08-10.24,13.62-17.11c0,.58-.03,1.11-.09,1.57-.06,.47-.21,.93-.44,1.4-.82,2.79-1.48,5.79-2.01,8.99-.52,3.2-.55,6.17-.09,8.9,.46,2.74,1.75,5.01,3.84,6.81,2.09,1.8,5.18,2.71,9.25,2.71s7.88-.99,11.09-2.97c3.2-1.98,5.94-4.3,8.21-6.98,2.27-2.68,3.93-4.95,4.98-6.81,.58-1.28,.67-2.47,.26-3.58-.41-1.1-1.54-2.24-3.4-3.4Zm-36.75-15.45c-5.53,8.32-10.86,14.67-15.98,19.03-5.12,4.36-9.72,6.55-13.79,6.55-1.98,0-3.7-.64-5.15-1.92-1.46-1.28-2.53-3.14-3.23-5.59-.7-2.44-1.05-5.29-1.05-8.55,0-3.84,.55-8,1.66-12.48,1.11-4.48,2.73-8.93,4.89-13.36,2.15-4.42,4.77-8.44,7.86-12.05,3.08-3.61,6.63-6.49,10.65-8.64,4.02-2.15,8.41-3.23,13.18-3.23,2.68,0,5.67,.23,8.99,.7,3.32,.47,6.84,1.51,10.56,3.14l-1.75,5.94c-5.71,11.99-11.32,22.15-16.85,30.47Z"/>
      <path d="M1748.4,98.04c.23-1.34-.12-2.59-1.05-3.75-1.4-2.09-3.29-3.9-5.67-5.41-2.39-1.51-5.15-2.27-8.29-2.27-2.56,0-5.41,.76-8.56,2.27-3.14,1.51-6.43,3.78-9.86,6.81-3.43,3.03-6.93,6.75-10.48,11.17-3.55,4.42-7.07,9.49-10.56,15.19l8.21-28.11c.7-2.33,.52-4.02-.52-5.06-1.05-1.05-3.32-1.57-6.81-1.57-2.21,0-3.87,.35-4.98,1.05-1.11,.7-2.01,2.16-2.71,4.36l-23.4,81.54c-.7,2.09-.26,3.55,1.31,4.36,1.57,.81,3.34,1.22,5.33,1.22,2.68,0,4.63-.38,5.85-1.13,1.22-.76,2.01-1.89,2.36-3.41l1.57-6.63c3.84-9.89,8.12-19,12.83-27.32,4.71-8.32,9.43-15.54,14.14-21.65,4.71-6.11,9.22-10.83,13.53-14.14,4.31-3.32,7.97-4.98,11-4.98,1.28,0,2.62,.35,4.02,1.05,1.4,.7,2.68,1.51,3.84,2.44,.93,1.05,1.98,1.28,3.14,.7,1.16-.58,2.38-1.51,3.67-2.79,1.16-1.28,1.86-2.59,2.1-3.93Z"/>
      <path d="M1840.94,156.09c-1.28-.93-2.39-1.28-3.32-1.05-.93,.23-1.86,.93-2.79,2.09-1.51,1.98-2.97,3.67-4.37,5.06-1.4,1.4-2.68,2.47-3.84,3.23-1.17,.76-2.33,1.13-3.49,1.13-.58,0-1.11-.17-1.57-.52-.47-.35-.7-1.05-.7-2.1s.29-2.68,.87-4.89l11.7-38.76c2.33-7.57,3.2-13.82,2.62-18.77-.58-4.95-2.36-8.67-5.33-11.17-2.97-2.5-7.13-3.75-12.48-3.75-3.84,0-7.68,.73-11.52,2.18-3.84,1.46-7.68,3.67-11.52,6.63-3.84,2.97-7.59,6.61-11.26,10.91-3.67,4.31-7.19,9.31-10.56,15.02l8.03-27.41c.7-2.33,.52-4.02-.52-5.06-1.05-1.05-3.32-1.57-6.81-1.57-2.21,0-3.87,.35-4.98,1.05-1.11,.7-2.01,2.16-2.71,4.36l-23.4,81.54c-.7,2.09-.26,3.55,1.31,4.36,1.57,.81,3.34,1.22,5.33,1.22,2.68,0,4.63-.38,5.85-1.13,1.22-.76,2.01-1.89,2.36-3.41l1.57-6.63c3.96-9.89,8.21-19.03,12.75-27.41,4.54-8.38,9.19-15.6,13.97-21.65,4.77-6.05,9.46-10.74,14.06-14.06,4.6-3.32,8.87-4.98,12.83-4.98,3.14,0,5.3,.73,6.46,2.18,1.16,1.46,1.66,3.4,1.48,5.85-.17,2.44-.73,5.18-1.66,8.21l-10.48,35.62c-.82,2.79-1.48,5.79-2.01,8.99-.52,3.2-.55,6.17-.09,8.9,.46,2.74,1.72,5.01,3.75,6.81,2.04,1.8,5.15,2.71,9.34,2.71s7.74-.99,11-2.97c3.26-1.98,5.99-4.3,8.21-6.98,2.21-2.68,3.84-5,4.89-6.98,.7-1.16,.84-2.3,.44-3.4-.41-1.1-1.54-2.24-3.4-3.4Z"/>
      <path d="M1927.62,89.22c-3.67-1.75-8.29-2.62-13.88-2.62-8.62,0-16.27,1.83-22.96,5.5-6.69,3.67-12.31,8.5-16.85,14.49-4.54,6-8,12.57-10.39,19.73-2.39,7.16-3.58,14.17-3.58,21.04,0,6.17,1.08,11.79,3.23,16.85,2.15,5.06,5.5,9.05,10.04,11.96,4.54,2.91,10.36,4.37,17.46,4.37,4.3,0,8.67-.67,13.09-2.01,4.42-1.34,8.84-3.58,13.27-6.72,4.42-3.14,8.79-7.45,13.09-12.92,1.28-1.75,1.83-3.32,1.66-4.71-.17-1.4-.85-2.73-2.01-4.02-1.28-1.28-2.82-2.12-4.63-2.53-1.81-.41-3.41,.21-4.8,1.83-2.68,3.03-5.41,5.85-8.21,8.47s-5.76,4.71-8.9,6.29-6.7,2.36-10.65,2.36-7.19-.81-9.69-2.44c-2.5-1.63-4.37-4.02-5.59-7.16-1.18-3.02-1.78-6.48-1.83-10.37,3.72-.68,7.5-1.43,11.34-2.29,6.52-1.45,12.89-3.29,19.12-5.5,6.23-2.21,11.79-4.83,16.67-7.86,4.89-3.03,8.79-6.46,11.7-10.3,2.91-3.84,4.37-8.21,4.37-13.1,0-4.3-.93-8-2.79-11.09-1.86-3.08-4.63-5.5-8.29-7.25Zm-8.38,28.46c-2.39,2.56-5.59,4.83-9.6,6.81-4.02,1.98-8.41,3.67-13.18,5.06-4.77,1.4-9.55,2.59-14.32,3.58-1.76,.36-3.44,.7-5.09,1.03,.31-1.24,.67-2.48,1.08-3.73,1.75-5.35,4.16-10.3,7.25-14.84,3.08-4.54,6.9-8.21,11.44-11,4.54-2.79,9.54-4.19,15.01-4.19,3.26,0,5.91,.67,7.94,2.01,2.04,1.34,3.06,3.46,3.06,6.37,0,3.38-1.2,6.35-3.58,8.9Z"/>
      <path d="M2031.25,94.28c-1.4-2.09-3.29-3.9-5.67-5.41-2.39-1.51-5.15-2.27-8.29-2.27-2.56,0-5.41,.76-8.56,2.27-3.14,1.51-6.43,3.78-9.86,6.81-3.43,3.03-6.93,6.75-10.48,11.17-3.55,4.42-7.07,9.49-10.56,15.19l8.21-28.11c.7-2.33,.52-4.02-.52-5.06-1.05-1.05-3.32-1.57-6.81-1.57-2.21,0-3.87,.35-4.98,1.05-1.11,.7-2.01,2.16-2.71,4.36l-23.4,81.54c-.7,2.09-.26,3.55,1.31,4.36,1.57,.81,3.34,1.22,5.33,1.22,2.68,0,4.63-.38,5.85-1.13,1.22-.76,2.01-1.89,2.36-3.41l1.57-6.63c3.84-9.89,8.12-19,12.83-27.32,4.71-8.32,9.43-15.54,14.14-21.65,4.71-6.11,9.22-10.83,13.53-14.14,4.31-3.32,7.97-4.98,11-4.98,1.28,0,2.62,.35,4.02,1.05,1.4,.7,2.68,1.51,3.84,2.44,.93,1.05,1.98,1.28,3.14,.7,1.16-.58,2.38-1.51,3.67-2.79,1.16-1.28,1.86-2.59,2.1-3.93,.23-1.34-.12-2.59-1.05-3.75Z"/>
    </g>
  </g>
</svg>