<?xml version="1.0" encoding="UTF-8"?>
<svg id="Layer_2" data-name="Layer 2" xmlns="http://www.w3.org/2000/svg" viewBox="0 0 1086.74 95.07">
  <g id="Layer_1-2" data-name="Layer 1">
    <g>
      <path d="M594.82,31.81c2.27,0,3.92-.7,4.97-2.11,1.04-1.41,1.56-2.97,1.56-4.69,0-1.59-.43-2.79-1.29-3.59-.86-.8-1.96-1.2-3.31-1.2-2.21,0-3.83,.7-4.87,2.11s-1.56,2.97-1.56,4.69c0,1.53,.43,2.73,1.29,3.59,.86,.8,1.93,1.2,3.22,1.2Z"/>
      <path d="M74.39,14.8c.86-.67,1.41-1.26,1.65-1.75,.31-.55,.21-1.16-.28-1.84-1.72-2.51-3.77-4.6-6.16-6.25-2.39-1.66-5.12-2.88-8.18-3.68-3-.86-6.41-1.29-10.21-1.29-5.58,0-10.73,.89-15.45,2.67-4.72,1.78-8.98,4.26-12.78,7.45-3.74,3.13-7.05,6.71-9.93,10.76-2.88,3.98-5.3,8.28-7.26,12.87-1.96,4.54-3.43,9.1-4.41,13.7-.92,4.6-1.38,9.01-1.38,13.24,0,5.39,.64,10.24,1.93,14.53,1.35,4.23,3.31,7.85,5.88,10.85,2.57,2.94,5.67,5.18,9.29,6.71,3.68,1.53,7.85,2.3,12.5,2.3,3.25,0,6.71-.64,10.39-1.93,3.74-1.29,7.57-3.43,11.49-6.44,3.98-3,7.94-7.08,11.86-12.23,.61-.92,.86-1.66,.74-2.21-.06-.61-.49-1.32-1.29-2.11-.74-.67-1.47-1.13-2.21-1.38-.67-.31-1.35-.09-2.02,.64-2.21,2.64-4.41,5.06-6.62,7.26-2.21,2.15-4.44,4.02-6.71,5.61-2.27,1.53-4.6,2.76-6.99,3.68-2.39,.86-4.9,1.29-7.54,1.29-3.74,0-7.02-.58-9.84-1.75-2.76-1.16-5.06-2.88-6.9-5.15-1.78-2.33-3.13-5.21-4.05-8.64-.92-3.49-1.38-7.54-1.38-12.14,0-3.8,.46-7.69,1.38-11.68,.92-4.05,2.21-8,3.86-11.86,1.72-3.86,3.8-7.48,6.25-10.85,2.45-3.43,5.21-6.44,8.28-9.01,3.06-2.64,6.41-4.69,10.02-6.16,3.68-1.47,7.57-2.21,11.68-2.21,3.31,0,6.16,.28,8.55,.83,2.45,.49,4.6,1.29,6.44,2.39,1.84,1.04,3.56,2.36,5.15,3.95,.8,.67,1.5,.98,2.11,.92,.61-.12,1.32-.49,2.11-1.1Z"/>
      <path d="M695.84,78.98c-.61-.67-1.41-1.1-2.39-1.29-.92-.25-1.75,.06-2.48,.92-1.41,1.59-2.88,3.06-4.41,4.41-1.47,1.35-3.07,2.45-4.78,3.31-1.66,.8-3.49,1.2-5.52,1.2-1.65,0-3.07-.28-4.23-.83-1.16-.61-2.15-1.44-2.94-2.48-.74-1.1-1.29-2.42-1.65-3.95-.31-1.53-.46-3.25-.46-5.15,0-.16,.02-.32,.02-.48,2.2-.11,4.42-.4,6.69-.9,3.68-.8,7.08-2.05,10.21-3.77,3.13-1.78,5.67-3.86,7.63-6.25,1.96-2.45,2.94-5.18,2.94-8.18,0-2.08-.46-3.86-1.38-5.33-.86-1.47-2.11-2.61-3.77-3.4-1.66-.8-3.62-1.2-5.88-1.2-3.98,0-7.51,.98-10.57,2.94-3.07,1.96-5.64,4.51-7.72,7.63-2.08,3.06-3.68,6.34-4.78,9.84-.14,.43-.24,.84-.36,1.26-.67-.3-1.32-.66-1.94-1.08-2.21-1.59-4.14-3.77-5.79-6.53-1.33-2.22-2.54-4.69-3.64-7.39-.26-1.52-.71-2.87-1.38-4.01-.98-1.78-2.48-2.67-4.51-2.67-1.41,0-2.58,.46-3.49,1.38-.92,.92-1.38,2.11-1.38,3.59,0,1.29,.31,2.42,.92,3.4,.61,.92,1.56,1.84,2.85,2.76,.06,1.35-.06,2.73-.37,4.14-.31,1.35-.64,2.73-1.01,4.14-.74,2.76-1.81,5.49-3.22,8.18-1.41,2.7-3.03,5.15-4.87,7.36-1.78,2.21-3.68,3.95-5.7,5.24-1.96,1.29-3.92,1.93-5.88,1.93-1.66,0-2.88-.37-3.68-1.1-.74-.74-1.2-1.72-1.38-2.94-.12-1.23-.06-2.57,.18-4.05,.25-1.53,.58-3.1,1.01-4.69l7.36-25.65c.31-1.04,.24-1.87-.18-2.48-.43-.61-1.62-.92-3.59-.92-1.53,0-2.54,.28-3.03,.83-.47,.47-.82,1.1-1.06,1.9-4.18,7.05-7.87,13.07-11.07,18.05-3.25,5.09-6.07,9.19-8.46,12.32-2.45,3.13-4.57,5.42-6.34,6.9-1.75,1.34-3.31,2.04-4.67,2.1-1.25-.06-1.94-.61-2.06-1.64-.12-1.16,.31-3.34,1.29-6.53l8.73-30.34c.37-1.23,.28-2.11-.28-2.67-.55-.55-1.75-.83-3.59-.83-1.16,0-2.05,.18-2.67,.55-.55,.37-1.01,1.13-1.38,2.3l-.36,1.23c-3.83,6.43-7.23,11.97-10.22,16.61-3.25,5.09-6.07,9.19-8.46,12.32-2.45,3.13-4.57,5.42-6.34,6.9-1.84,1.41-3.46,2.11-4.87,2.11-.05,0-.1,.01-.15,.01-.03,0-.06-.01-.1-.01-1.16,0-2.24-.31-3.22-.92-.92-.61-1.62-1.53-2.11-2.76-.49-1.29-.73-2.88-.73-4.78,.06-1.96,.49-4.23,1.29-6.8l5.33-18.02h11.95c.67,0,1.32-.31,1.93-.92,.61-.67,1.04-1.59,1.29-2.76,.31-1.29,.31-2.21,0-2.76-.24-.61-.7-.92-1.38-.92h-11.68l5.24-17.65c.37-1.23,.28-2.11-.28-2.67-.49-.55-1.66-.83-3.49-.83-1.23,0-2.15,.18-2.76,.55-.55,.37-1.01,1.13-1.38,2.3l-5.24,18.3h-7.35c-.74,0-1.41,.31-2.02,.92-.55,.61-.98,1.53-1.29,2.76-.31,1.23-.34,2.15-.09,2.76,.31,.61,.8,.92,1.47,.92h6.99l-1.99,6.74c-2.12,3.35-4.12,6.35-6.01,8.98-3.06,4.29-5.82,7.72-8.28,10.3-2.45,2.57-4.63,4.44-6.53,5.61-1.9,1.1-3.56,1.66-4.97,1.66-.02,0-.03,0-.04,0-.01,0-.02,0-.03,0-1.41,0-2.18-.58-2.3-1.75-.12-1.16,.28-3.31,1.2-6.44l9.01-30.34c.37-1.23,.28-2.11-.28-2.67-.55-.55-1.75-.83-3.59-.83-1.16,0-2.05,.18-2.67,.55-.47,.31-.86,.92-1.2,1.8-1.2-.56-2.46-1.04-3.77-1.44-2.64-.86-5.15-1.29-7.54-1.29-3.74,0-7.17,.74-10.3,2.21-3.07,1.47-5.79,3.46-8.18,5.98-2.33,2.45-4.32,5.21-5.98,8.28-.1,.17-.18,.35-.27,.53-3.85,5.1-7.56,9.46-11.13,13.08-4.05,4.05-7.88,7.08-11.49,9.1-3.55,1.95-6.98,2.95-10.3,3.02-2.69-.03-4.88-.57-6.54-1.64-1.72-1.1-2.97-2.57-3.77-4.41-.8-1.9-1.2-3.92-1.2-6.07,0-2.39,.37-4.87,1.1-7.45,.8-2.64,1.93-5.12,3.4-7.45,1.53-2.33,3.43-4.2,5.7-5.61,2.27-1.47,4.87-2.21,7.82-2.21,2.76,0,4.97,.37,6.62,1.1,1.72,.67,3.19,1.69,4.41,3.03,.86,.86,1.68,1.26,2.48,1.2,.8-.12,1.59-.52,2.39-1.2,.73-.67,1.23-1.38,1.47-2.11,.25-.74-.06-1.66-.92-2.76-1.9-2.21-4.14-3.86-6.71-4.97-2.51-1.1-5.52-1.66-9.01-1.66-4.35,0-8.21,.92-11.59,2.76-3.37,1.84-6.19,4.26-8.46,7.26-2.27,2.94-4.02,6.16-5.24,9.65-.21,.62-.38,1.23-.55,1.85-1.52,2.57-3.02,4.96-4.5,7.16-1.9,2.82-3.74,5.24-5.52,7.26-1.84,2.02-3.62,3.62-5.33,4.78-1.72,1.1-3.34,1.66-4.87,1.66-.02,0-.03,0-.05,0-.01,0-.02,0-.03,0-1.35,0-2.08-.58-2.21-1.75-.12-1.16,.28-3.31,1.2-6.44l8.83-30.34c.43-1.23,.37-2.11-.18-2.67-.55-.55-1.75-.83-3.59-.83-1.16,0-2.05,.18-2.67,.55-.61,.37-1.1,1.13-1.47,2.3l-.37,2.02c-2.02,5.33-4.26,10.24-6.71,14.71-2.39,4.41-4.84,8.24-7.36,11.49-2.51,3.25-5,5.79-7.45,7.63-2.45,1.78-4.75,2.67-6.9,2.67-1.65,0-2.79-.37-3.4-1.1-.61-.8-.89-1.87-.83-3.22,.12-1.35,.43-2.79,.92-4.32l8.73-29.24c.37-1.23,.28-2.11-.28-2.67-.55-.55-1.75-.83-3.59-.83-1.16,0-2.05,.18-2.67,.55-.55,.37-1.01,1.13-1.38,2.3l-.45,1.54c-3.75,6.3-7.1,11.73-10.03,16.3-3.25,5.09-6.07,9.19-8.46,12.32-2.45,3.13-4.57,5.42-6.35,6.9-1.84,1.41-3.46,2.11-4.87,2.11-1.41,0-2.17-.58-2.29-1.75-.12-1.16,.31-3.31,1.29-6.44l4.78-16.46c1.23-3.98,1.69-7.26,1.38-9.84-.31-2.64-1.26-4.6-2.85-5.88-1.53-1.35-3.71-2.02-6.53-2.02-2.02,0-4.05,.4-6.07,1.2-2.02,.74-4.05,1.9-6.07,3.49-1.96,1.53-3.92,3.43-5.89,5.7-1.9,2.21-3.74,4.81-5.52,7.82l4.14-14.34c.37-1.23,.28-2.11-.28-2.67-.55-.55-1.75-.83-3.59-.83-1.16,0-2.05,.18-2.67,.55-.55,.37-1.01,1.13-1.38,2.3l-.43,1.51c-3.76,6.31-7.11,11.75-10.05,16.32-3.25,5.09-6.07,9.19-8.46,12.32-2.45,3.13-4.57,5.42-6.34,6.9-1.84,1.41-3.46,2.11-4.87,2.11,0,0,0,0-.01,0,0,0,0,0,0,0-1.41,0-2.18-.58-2.3-1.75-.12-1.16,.28-3.31,1.2-6.44l4.78-16.46c1.1-3.49,1.59-6.56,1.47-9.19-.12-2.7-.95-4.78-2.48-6.25-1.47-1.53-3.77-2.3-6.9-2.3s-6.16,.98-9.29,2.94c-3.07,1.96-6.07,4.87-9.01,8.73-1.42,1.83-2.8,3.87-4.15,6.1v-.03c1.05-3.49,1.51-6.59,1.39-9.29-.06-2.7-.86-4.78-2.39-6.25-1.47-1.47-3.77-2.21-6.9-2.21-1.9,0-3.83,.4-5.79,1.2-1.9,.74-3.8,1.84-5.7,3.31-1.84,1.47-3.68,3.34-5.52,5.61-1.78,2.21-3.52,4.75-5.24,7.63l3.95-13.88c.37-1.23,.28-2.11-.28-2.67-.55-.55-1.75-.83-3.59-.83-1.16,0-2.05,.18-2.67,.55-.55,.37-1.01,1.13-1.38,2.3l-.43,1.51c-3.76,6.31-7.11,11.75-10.05,16.32-3.25,5.09-6.07,9.19-8.46,12.32-2.45,3.13-4.57,5.42-6.35,6.9-1.84,1.41-3.46,2.11-4.87,2.11,0,0,0,0-.01,0,0,0,0,0,0,0-1.41,0-2.18-.58-2.3-1.75-.12-1.16,.28-3.31,1.2-6.44l4.78-16.46c1.1-3.49,1.59-6.56,1.47-9.19-.12-2.7-.95-4.78-2.48-6.25-1.47-1.53-3.77-2.3-6.9-2.3s-6.16,.98-9.29,2.94c-3.07,1.96-6.07,4.87-9.01,8.73-1.42,1.83-2.8,3.87-4.14,6.1v-.03c1.05-3.49,1.51-6.59,1.39-9.29-.06-2.7-.86-4.78-2.39-6.25-1.47-1.47-3.77-2.21-6.9-2.21-1.9,0-3.83,.4-5.79,1.2-1.9,.74-3.8,1.84-5.7,3.31-1.84,1.47-3.68,3.34-5.52,5.61-1.78,2.21-3.52,4.75-5.24,7.63l3.95-13.88c.37-1.23,.28-2.11-.28-2.67-.55-.55-1.75-.83-3.59-.83-1.16,0-2.05,.18-2.67,.55-.3,.2-.56,.52-.81,.95-1.11,.72-2.37,1.35-3.79,1.9-1.9,.74-3.86,1.29-5.88,1.65-1.96,.37-3.83,.55-5.61,.55-2.88,0-5.52-.25-7.91-.74-2.39-.55-4.75-1.53-7.08-2.94-.17-.1-.33-.17-.5-.22-2.56-1.38-5.63-2.08-9.24-2.08-4.47,0-8.4,.98-11.77,2.94-3.31,1.9-6.1,4.41-8.37,7.54-2.27,3.06-3.98,6.41-5.15,10.02-1.16,3.56-1.75,6.99-1.75,10.3,0,3.62,.67,6.87,2.02,9.75,1.41,2.82,3.46,5.03,6.16,6.62,2.7,1.53,5.98,2.3,9.84,2.3,3.62,0,6.87-.67,9.75-2.02,2.88-1.35,5.39-3.13,7.54-5.33,2.15-2.27,3.92-4.78,5.33-7.54,1.41-2.76,2.45-5.58,3.13-8.46,.74-2.88,1.1-5.58,1.1-8.09,0-2.32-.31-4.45-.91-6.4,2.24,.46,4.5,.7,6.78,.7,1.9,0,3.98-.18,6.25-.55,2.33-.37,4.69-1.01,7.08-1.93,.19-.07,.37-.16,.56-.24l-10.49,36.56c-.37,1.1-.15,1.87,.64,2.3,.86,.43,1.81,.64,2.85,.64,1.41,0,2.42-.21,3.03-.64,.67-.37,1.1-.95,1.29-1.75l1.01-3.86c2.02-5.09,4.17-9.78,6.44-14.07,2.33-4.35,4.69-8.12,7.08-11.31,2.39-3.25,4.72-5.73,6.99-7.45,2.33-1.78,4.47-2.67,6.44-2.67,1.72,0,2.85,.4,3.4,1.2,.61,.74,.86,1.75,.74,3.03-.12,1.29-.43,2.73-.92,4.32l-8.74,30.25c-.37,1.1-.15,1.87,.64,2.3,.86,.43,1.81,.64,2.85,.64,1.41,0,2.42-.21,3.03-.64,.61-.37,1.04-.95,1.29-1.75l.64-2.21h0c2.02-5.33,4.17-10.24,6.44-14.71,2.33-4.54,4.72-8.49,7.17-11.86,2.45-3.37,4.84-5.98,7.17-7.82,2.39-1.84,4.6-2.76,6.62-2.76,1.72,0,2.85,.4,3.4,1.2,.61,.74,.86,1.75,.74,3.03-.12,1.29-.43,2.73-.92,4.32l-5.42,18.48c-.49,1.59-.86,3.28-1.1,5.06-.18,1.72-.09,3.31,.28,4.78,.43,1.47,1.26,2.67,2.48,3.59,1.29,.98,3.22,1.47,5.79,1.47,0,0,0,0,.01,0,0,0,0,0,0,0,2.58,0,5.09-.7,7.54-2.11,2.39-1.41,4.97-3.8,7.72-7.17,2.76-3.37,5.91-7.94,9.47-13.7,.34-.56,.69-1.14,1.05-1.73l-6.19,21.59c-.37,1.1-.15,1.87,.64,2.3,.86,.43,1.81,.64,2.85,.64,1.41,0,2.42-.21,3.03-.64,.67-.37,1.1-.95,1.29-1.75l1.01-3.86c2.02-5.09,4.17-9.78,6.44-14.07,2.33-4.35,4.69-8.12,7.08-11.31,2.39-3.25,4.72-5.73,6.99-7.45,2.33-1.78,4.47-2.67,6.44-2.67,1.72,0,2.85,.4,3.4,1.2,.61,.74,.86,1.75,.74,3.03-.12,1.29-.43,2.73-.92,4.32l-8.73,30.25c-.37,1.1-.15,1.87,.64,2.3,.86,.43,1.81,.64,2.85,.64,1.41,0,2.42-.21,3.03-.64,.61-.37,1.04-.95,1.29-1.75l.64-2.21h0c2.02-5.33,4.17-10.24,6.44-14.71,2.33-4.54,4.72-8.49,7.17-11.86,2.45-3.37,4.84-5.98,7.17-7.82,2.39-1.84,4.6-2.76,6.62-2.76,1.72,0,2.85,.4,3.4,1.2,.61,.74,.86,1.75,.74,3.03-.12,1.29-.43,2.73-.92,4.32l-5.42,18.48c-.49,1.59-.86,3.28-1.1,5.06-.18,1.72-.09,3.31,.28,4.78,.43,1.47,1.26,2.67,2.48,3.59,1.29,.98,3.22,1.47,5.79,1.47,0,0,0,0,.01,0,0,0,0,0,0,0,2.58,0,5.09-.7,7.54-2.11,2.39-1.41,4.96-3.8,7.72-7.17,2.76-3.37,5.92-7.94,9.47-13.7,.34-.56,.69-1.14,1.05-1.73l-6.19,21.59c-.37,1.1-.15,1.87,.64,2.3,.86,.43,1.81,.64,2.85,.64,1.41,0,2.42-.21,3.03-.64,.67-.37,1.1-.95,1.29-1.75l1.01-3.77c2.02-5.27,4.23-10.05,6.62-14.34,2.45-4.35,4.9-8.09,7.36-11.22,2.51-3.19,4.97-5.64,7.36-7.36,2.45-1.78,4.69-2.67,6.71-2.67,1.65,0,2.79,.4,3.4,1.2,.61,.74,.86,1.75,.73,3.03-.06,1.29-.34,2.73-.83,4.32l-5.52,18.48c-.43,1.59-.77,3.28-1.01,5.06-.18,1.72-.09,3.31,.28,4.78,.37,1.47,1.2,2.67,2.48,3.59,1.26,.96,3.15,1.45,5.66,1.47,0,0,.02,0,.03,0,.01,0,.03,0,.04,0,.02,0,.04,0,.06,0,.03,0,.05,0,.08,0,2.51-.03,4.96-.73,7.35-2.11,2.39-1.41,4.96-3.8,7.72-7.17,2.76-3.37,5.92-7.94,9.47-13.7,.28-.45,.56-.93,.84-1.39l-1.86,6.36c-1.16,3.92-1.62,7.23-1.38,9.93,.24,2.64,1.16,4.63,2.76,5.98,1.59,1.29,3.77,1.93,6.53,1.93,1.96,0,3.95-.4,5.98-1.2,2.02-.74,4.02-1.87,5.98-3.4,2.02-1.53,3.98-3.4,5.89-5.61,1.96-2.21,3.8-4.78,5.52-7.72l-.83,3.22c-.49,1.59-.83,3.28-1.01,5.06-.18,1.72-.09,3.31,.28,4.78,.37,1.47,1.2,2.67,2.48,3.59,1.29,.98,3.18,1.47,5.69,1.47,0,0,0,0,0,0s0,0,0,0c0,0,0,0,0,0,0,0,.02,0,.03,0,2.5,0,4.88-.59,7.14-1.74,2.21-1.16,4.41-2.88,6.62-5.15,2.15-2.33,4.35-5.24,6.62-8.73,.18-.28,.36-.58,.55-.87,.48,4.42,2,8.12,4.6,11.07,3.17,3.53,7.84,5.32,13.99,5.41,.03,0,.06,.02,.09,.02,.06,0,.12,0,.18,0,.06,0,.11,0,.17,0s.12-.02,.18-.02c4.06-.1,8.14-1.28,12.25-3.57,4.29-2.39,8.64-5.95,13.06-10.67,1.18-1.26,2.37-2.62,3.55-4.05-.15,1.32-.24,2.61-.24,3.86,0,2.94,.43,5.52,1.29,7.72,.92,2.15,2.18,3.8,3.77,4.97,1.66,1.16,3.59,1.75,5.79,1.75,3.19,0,6.53-1.32,10.02-3.95,3.49-2.7,7.08-6.71,10.76-12.05,.03-.04,.06-.09,.09-.13l-.36,1.24c-.49,1.59-.86,3.28-1.1,5.06-.18,1.72-.09,3.31,.28,4.78,.43,1.47,1.29,2.67,2.58,3.59,1.28,.98,3.21,1.47,5.77,1.47,0,0,0,0,0,0s0,0,0,0c0,0,0,0,.01,0,.02,0,.04,0,.07,0,2.48-.01,4.94-.59,7.36-1.74,2.45-1.16,5.06-3.16,7.82-5.98,2.48-2.48,5.17-5.76,8.07-9.84-.13,1.08-.23,2.15-.25,3.22,0,2.7,.43,5.12,1.29,7.26,.86,2.15,2.18,3.86,3.95,5.15,1.84,1.29,4.17,1.93,6.99,1.93,.05,0,.1-.01,.15-.01,.03,0,.06,.01,.1,.01,2.58,0,5.09-.7,7.54-2.11,2.39-1.41,4.97-3.8,7.72-7.17,2.76-3.37,5.92-7.94,9.47-13.7,.37-.6,.75-1.23,1.13-1.87l-2.88,9.96c-.43,1.66-.77,3.37-1.01,5.15-.18,1.72-.09,3.31,.28,4.78,.37,1.47,1.2,2.67,2.48,3.59,1.19,.85,2.91,1.3,5.15,1.37,.04,0,.07,.01,.11,.01,.06,0,.12,0,.18,0,.09,0,.17,0,.26,0,.13,0,.24-.02,.36-.03,.13,0,.26-.02,.39-.03,.06,0,.12,0,.18-.02,2.1-.21,4.15-.88,6.16-2.04,2.39-1.41,4.96-3.8,7.72-7.17,2.76-3.37,5.91-7.94,9.47-13.7,.69-1.13,1.42-2.34,2.16-3.58l-1.88,6.62c-.67,2.45-1.07,4.87-1.2,7.26-.12,2.33,.15,4.47,.83,6.44,.73,1.96,1.93,3.52,3.59,4.69,1.72,1.16,4.02,1.75,6.9,1.75,3.43,0,6.65-.83,9.65-2.48,3.07-1.65,5.85-3.89,8.37-6.71,2.58-2.82,4.75-5.95,6.53-9.38,1.78-3.43,3.16-6.93,4.14-10.48,.21-.73,.38-1.46,.53-2.17,.15,.23,.29,.47,.44,.7,2.21,3.43,4.75,6.04,7.63,7.82,.86,.52,1.75,.95,2.66,1.32-.05,.67-.09,1.34-.09,1.99,0,3.68,.58,6.96,1.75,9.84,1.17,2.88,2.97,5.18,5.42,6.9,2.51,1.66,5.64,2.48,9.38,2.48,2.27,0,4.57-.34,6.9-1.01,2.39-.67,4.75-1.84,7.08-3.49,2.33-1.66,4.63-3.92,6.9-6.8,.68-.92,.95-1.75,.83-2.48-.06-.74-.43-1.44-1.1-2.11Zm-589.7-6.9c-.8,2.64-1.96,5.15-3.49,7.54-1.47,2.39-3.31,4.35-5.52,5.88-2.15,1.47-4.66,2.21-7.54,2.21-2.15,0-4.02-.46-5.61-1.38-1.59-.92-2.82-2.27-3.68-4.05-.86-1.84-1.29-3.98-1.29-6.44s.4-4.81,1.2-7.45c.8-2.64,1.93-5.12,3.4-7.45,1.53-2.39,3.43-4.32,5.7-5.79,2.27-1.47,4.87-2.21,7.82-2.21,2.08,0,3.86,.46,5.33,1.38,1.53,.86,2.73,2.15,3.59,3.86,.86,1.72,1.29,3.8,1.29,6.25s-.4,4.93-1.19,7.63Zm403.04,.55c-3.13,4.84-6.1,8.55-8.92,11.13-2.76,2.51-5.3,3.77-7.63,3.77-1.04,0-1.96-.34-2.76-1.01-.74-.67-1.29-1.65-1.66-2.94-.37-1.29-.55-2.79-.55-4.51,0-2.02,.28-4.2,.83-6.53,.61-2.39,1.47-4.75,2.57-7.08,1.16-2.33,2.54-4.44,4.14-6.34,1.59-1.9,3.43-3.4,5.52-4.51,2.15-1.16,4.47-1.75,6.99-1.75,1.96,0,4.11,.25,6.44,.74,1.22,.26,2.53,.68,3.92,1.24l-.79,2.67c-2.68,5.81-5.38,10.85-8.1,15.12Zm161.84-11.77c1.29-2.33,2.85-4.23,4.69-5.7,1.9-1.53,4.02-2.3,6.34-2.3,1.17,0,2.11,.28,2.85,.83,.8,.49,1.2,1.44,1.2,2.85,0,2.08-.77,3.89-2.3,5.42-1.53,1.53-3.46,2.79-5.79,3.77-2.33,.98-4.78,1.69-7.36,2.11-.92,.15-1.8,.25-2.65,.32,.73-2.56,1.74-4.99,3.02-7.3Z"/>
      <path d="M1086.15,49.65c-.74-1.1-1.75-2.05-3.04-2.85-1.22-.8-2.66-1.2-4.32-1.2-1.35,0-2.85,.4-4.5,1.2-1.66,.8-3.4,1.99-5.24,3.59-1.78,1.59-3.62,3.56-5.52,5.88-1.84,2.33-3.68,5-5.52,8l4.32-14.8c.37-1.23,.28-2.11-.27-2.67-.55-.55-1.75-.83-3.59-.83-1.16,0-2.05,.18-2.66,.55-.56,.37-1.01,1.13-1.38,2.3l-.44,1.55s-.01,.01-.02,.02c-4.66,7.17-8.86,13.18-12.6,18.02-3.67,4.78-7.02,8.61-10.02,11.49-3,2.82-5.76,4.84-8.27,6.07-2.57,1.22-5.01,1.83-7.33,1.84-1.89,0-3.5-.31-4.84-.92-1.29-.61-2.36-1.47-3.22-2.57-.39-.5-.72-1.05-1.01-1.65,3.52-2.14,6.78-4.26,9.75-6.35,3.31-2.33,6.19-4.63,8.64-6.9,2.51-2.33,4.44-4.63,5.79-6.9s2.03-4.6,2.03-6.99c0-2.08-.46-3.86-1.38-5.33-.86-1.47-2.12-2.61-3.77-3.4-1.66-.8-3.62-1.2-5.89-1.2-3.98,0-7.51,.98-10.57,2.94-3.07,1.96-5.64,4.51-7.73,7.63-2.08,3.06-3.67,6.34-4.78,9.84-1.1,3.43-1.66,6.65-1.66,9.65,0,1.41,.09,2.77,.27,4.07-2.74,1.75-5.1,3.19-7.08,4.3-2.57,1.41-4.72,2.42-6.44,3.03-1.71,.61-3.21,.92-4.5,.92-1.41,0-2.17-.58-2.29-1.75-.12-1.16,.31-3.31,1.29-6.44l4.78-16.46c1.23-3.98,1.69-7.26,1.38-9.84-.31-2.64-1.26-4.6-2.85-5.88-1.53-1.35-3.71-2.02-6.53-2.02-2.02,0-4.05,.4-6.07,1.2-2.02,.74-4.05,1.9-6.07,3.49-1.96,1.53-3.92,3.43-5.88,5.7-1.9,2.21-3.74,4.81-5.52,7.82l4.14-14.34c.37-1.23,.28-2.11-.28-2.67-.55-.55-1.75-.83-3.59-.83-1.16,0-2.05,.18-2.67,.55-.21,.14-.41,.36-.59,.62-.82,.34-1.58,.6-2.26,.76-.74,.18-1.47,.28-2.21,.28-1.23,0-2.39-.21-3.49-.64-1.1-.43-2.27-.86-3.49-1.29-1.16-.43-2.48-.64-3.95-.64,0,0,0,0-.01,0s0,0-.01,0c-1.23,0-2.57,.4-4.04,1.2-1.47,.8-3.03,1.99-4.69,3.59-1.66,1.53-3.34,3.46-5.06,5.79-1.66,2.27-3.34,4.9-5.06,7.91l4.23-14.62c.37-1.23,.28-2.11-.28-2.67-.55-.55-1.75-.83-3.59-.83-1.16,0-2.05,.18-2.67,.55-.55,.37-1.01,1.13-1.38,2.3l-.44,1.52c-3.76,6.31-7.11,11.75-10.05,16.32-3.25,5.09-6.07,9.19-8.46,12.32-2.45,3.13-4.57,5.42-6.34,6.9-1.84,1.41-3.46,2.11-4.87,2.11-.01,0-.03,0-.04,0,0,0-.02,0-.03,0-1.41,0-2.18-.58-2.3-1.75-.12-1.16,.28-3.31,1.2-6.44l9.01-30.34c.37-1.23,.28-2.11-.28-2.67-.55-.55-1.75-.83-3.59-.83-1.16,0-2.05,.18-2.67,.55-.47,.31-.86,.92-1.2,1.81-1.2-.56-2.46-1.04-3.77-1.44-2.64-.86-5.15-1.29-7.54-1.29-3.74,0-7.17,.74-10.3,2.21-3.07,1.47-5.79,3.46-8.18,5.98-2.15,2.26-4,4.79-5.57,7.58-4.81,6.53-9.08,11.71-12.82,15.5-4.04,4.05-7.6,6.9-10.66,8.55-3.05,1.59-5.77,2.38-8.15,2.39-2.44,0-4.45-.43-6.04-1.29-1.53-.92-2.67-2.21-3.4-3.86-.65-1.64-.97-3.48-1-5.52,1.76-.35,3.53-.75,5.32-1.19,3.25-.8,6.41-1.75,9.47-2.85,3.07-1.16,5.79-2.54,8.18-4.14,2.45-1.59,4.38-3.4,5.79-5.42,1.47-2.08,2.21-4.38,2.21-6.9,0-2.27-.52-4.2-1.56-5.79-.98-1.65-2.42-2.94-4.32-3.86-1.84-.92-4.08-1.38-6.71-1.38-4.11,0-7.82,.98-11.13,2.94-3.25,1.9-6.04,4.44-8.37,7.63-2.33,3.13-4.11,6.56-5.33,10.3s-1.84,7.42-1.84,11.03c0,3.25,.61,6.19,1.84,8.83,1.29,2.64,3.22,4.72,5.79,6.25,2.64,1.53,5.98,2.3,10.02,2.3,0,0,0,0,.01,0s0,0,.01,0c3.49,0,7.17-1.04,11.03-3.13,3.8-2.08,7.88-5.49,12.23-10.21,1.4-1.49,2.83-3.17,4.29-4.99-.15,1.32-.24,2.62-.24,3.89,0,2.94,.43,5.52,1.29,7.72,.92,2.15,2.18,3.8,3.77,4.97,1.66,1.16,3.59,1.75,5.79,1.75,3.19,0,6.53-1.32,10.02-3.95,3.49-2.7,7.08-6.71,10.76-12.05,.03-.04,.06-.09,.09-.13l-.36,1.24c-.49,1.59-.86,3.28-1.1,5.06-.18,1.72-.09,3.31,.28,4.78,.43,1.47,1.29,2.67,2.58,3.59,1.28,.98,3.21,1.47,5.77,1.47,0,0,0,0,0,0,0,0,0,0,0,0,0,0,0,0,.01,0,0,0,.01,0,.02,0,2.56,0,5.06-.71,7.5-2.11,2.39-1.41,4.97-3.8,7.72-7.17s5.91-7.94,9.47-13.7c.34-.56,.69-1.14,1.04-1.73l-6.19,21.59c-.37,1.1-.15,1.87,.64,2.3,.86,.43,1.81,.64,2.85,.64,1.41,0,2.42-.21,3.03-.64,.67-.37,1.1-.95,1.29-1.75l1.38-4.51c2.02-5.21,4.23-9.93,6.62-14.16,2.39-4.29,4.78-7.97,7.17-11.03,2.39-3.13,4.54-5.52,6.44-7.17,1.9-1.66,3.4-2.48,4.51-2.48,.02,0,.04,0,.06,0,.02,0,.04,0,.06,0,.8,0,1.62,.15,2.48,.46,.92,.25,1.96,.52,3.13,.83,1.23,.25,2.57,.37,4.05,.37,.73,0,1.72-.12,2.94-.37,.42-.1,.91-.29,1.44-.5l-10.91,38.02c-.37,1.1-.15,1.87,.64,2.3,.86,.43,1.81,.64,2.85,.64,1.41,0,2.42-.21,3.03-.64,.67-.37,1.1-.95,1.29-1.75l1.01-3.77c2.02-5.27,4.23-10.05,6.62-14.34,2.45-4.35,4.9-8.09,7.36-11.22,2.51-3.19,4.97-5.64,7.36-7.36,2.45-1.78,4.69-2.67,6.71-2.67,1.65,0,2.79,.4,3.4,1.2,.61,.74,.86,1.75,.74,3.03-.06,1.29-.34,2.73-.83,4.32l-5.52,18.48c-.43,1.59-.77,3.28-1.01,5.06-.18,1.72-.09,3.31,.28,4.78,.37,1.47,1.2,2.67,2.48,3.59,1.27,.96,3.16,1.45,5.66,1.47,0,0,.02,0,.03,0,.01,0,.02,0,.04,0,.02,0,.04,0,.06,0,.05,0,.08,0,.13,0,1.89-.03,3.87-.35,5.93-1,2.15-.67,4.72-1.81,7.72-3.4,2.21-1.24,4.75-2.78,7.61-4.61,1.23,2.71,3.07,4.9,5.54,6.54,2.57,1.66,5.91,2.48,10.02,2.48,0,0,.01,0,.02,0,0,0,0,0,.01,0,3.31,0,6.59-.74,9.84-2.21,3.18-1.53,6.49-3.92,9.93-7.17,3.43-3.25,7.05-7.54,10.85-12.87,1.25-1.74,2.54-3.62,3.87-5.6l-7.09,24.73c-.37,1.1-.16,1.87,.64,2.3,.86,.43,1.81,.64,2.85,.64,1.41,0,2.42-.21,3.03-.64,.68-.37,1.11-.95,1.29-1.75l.83-3.49c2.02-5.21,4.26-9.99,6.71-14.34,2.51-4.41,5-8.21,7.45-11.4,2.51-3.25,4.9-5.73,7.17-7.45,2.27-1.78,4.2-2.67,5.79-2.67,.68,0,1.38,.18,2.12,.55,.73,.37,1.41,.8,2.02,1.29,.49,.55,1.04,.67,1.66,.37,.61-.31,1.25-.8,1.93-1.47,.61-.67,.98-1.35,1.1-2.02,.12-.74-.06-1.41-.55-2.02Zm-278.1,11.22c1.59-2.39,3.43-4.32,5.52-5.79,2.15-1.47,4.48-2.21,6.99-2.21,1.53,0,2.79,.37,3.77,1.1,.98,.67,1.47,1.78,1.47,3.31,0,1.78-.61,3.34-1.84,4.69-1.16,1.35-2.7,2.54-4.6,3.59-1.9,1.04-4.02,1.93-6.34,2.67-2.27,.74-4.57,1.38-6.9,1.93-.75,.16-1.47,.3-2.17,.44,.15-.63,.32-1.27,.51-1.91,.86-2.82,2.05-5.42,3.59-7.82Zm61.72,11.77c-3.13,4.84-6.1,8.55-8.92,11.13-2.76,2.51-5.3,3.77-7.63,3.77-1.04,0-1.96-.34-2.76-1.01-.74-.67-1.29-1.65-1.66-2.94-.37-1.29-.55-2.79-.55-4.51,0-2.02,.28-4.2,.83-6.53,.61-2.39,1.47-4.75,2.57-7.08,1.17-2.33,2.54-4.44,4.14-6.34,1.59-1.9,3.43-3.4,5.52-4.51,2.15-1.16,4.47-1.75,6.99-1.75,1.96,0,4.11,.25,6.44,.74,1.22,.26,2.53,.68,3.93,1.24l-.79,2.67c-2.68,5.81-5.38,10.85-8.1,15.13Zm136.63-4.41c.73-2.57,1.74-5.03,3.03-7.36,1.29-2.33,2.85-4.23,4.69-5.7,1.9-1.53,4.01-2.3,6.34-2.3,1.17,0,2.12,.28,2.85,.83,.8,.49,1.2,1.44,1.2,2.85,0,1.66-.74,3.43-2.21,5.33-1.47,1.9-3.37,3.8-5.7,5.7-2.27,1.9-4.66,3.71-7.17,5.42-1.43,.98-2.77,1.87-4.04,2.71,0-.2-.01-.39-.01-.6,0-2.02,.34-4.32,1.02-6.9Z"/>
      <path d="M781.08,85.97h-37.79L767.11,2.76c.37-.98,.22-1.69-.46-2.11-.67-.43-1.72-.64-3.13-.64s-2.33,.21-2.94,.64c-.61,.37-1.07,.98-1.38,1.84l-24.92,87.17c-.73,2.45,.28,3.68,3.03,3.68h41.84c.74,0,1.38-.31,1.93-.92,.61-.67,1.04-1.59,1.29-2.76,.37-1.29,.4-2.21,.09-2.76-.24-.61-.7-.92-1.38-.92Z"/>
    </g>
  </g>
</svg>